<mxfile host="65bd71144e">
    <diagram id="ny6qyN6gMtn-3wFKKkBX" name="Page-1">
        <mxGraphModel dx="137" dy="721" grid="1" gridSize="10" guides="1" tooltips="1" connect="1" arrows="1" fold="1" page="1" pageScale="1" pageWidth="850" pageHeight="1100" math="0" shadow="0">
            <root>
                <mxCell id="0"/>
                <mxCell id="1" parent="0"/>
                <mxCell id="34" value="" style="shape=image;verticalLabelPosition=bottom;labelBackgroundColor=default;verticalAlign=top;aspect=fixed;imageAspect=0;image=data:image/png,iVBORw0KGgoAAAANSUhEUgAABREAAAFGCAYAAAD9xthDAAAAAXNSR0IArs4c6QAAAARnQU1BAACxjwv8YQUAAAAJcEhZcwAAEnQAABJ0Ad5mH3gAAN5fSURBVHhe7N0LfE/1/wfw1wxzv6uNRUblkpqRIU1k6ReVH13RX5IYP4lIckkuySWKmEuSsK78VPxKE5HbxKxcKyyaNpn7dWP8z/tzzvl+z/e77/e77642ez09ju+5n/M953zPvuf9fX8+H59rGhARERERERERERG5UcR4JSIiIiIiIiIiInKJQUQiIiIiIiIiIiLyiEFEIiIiIiIiIiIi8ohBRCIiIiIiIiIiIvKIQUQiIiIiIiIiIiLyiEFEIiIiIiIiIiIi8ohBRCIiIiIiIiIiIvKIQUQiIiIiIiIiIiLyiEFEIiIiIiIiIiIi8ohBRCIiIiIiIiIiIvLI55rG6M8xEcsTUe+m4nipRWVjjG76puPY+08qIjsGGGMKvl8SL6Ht/D+RfD7NGAP0Ca10Q71HIiIiIiIiIiIq3JiJaFjxzdfYu3ePMZQ5t1fxQ9LwO3BtQgP1+uPB8ypgSvlbds45EREREREREVFhwiCi4aF/PYxV332Hffv2GmOy5uYyRRHRrKLKuKT8LafOORERERERERHRje66BhHPp15F+48OwWfYbtVVHbdPFQ82STafFI2WTqbXm7ofR89dUePNZZwz/qzTzPm9UbRoUfR/aQC++/bbHA8qrfr9nG2fnN+j+d6kk2Mhx0TIfsv+m9Os70Ve750d77Ae2Ya5vHlcx689prbnPN7V9jJz3KzzmufHPA/mfnT5NEFNl2FzvLmMuZxJ3oe8H+s2ZX3mPOY6l+46Y1veuu/C3XH0JDfPORERERERERHRjSTXgogDvkmyBXXMTsaZJMjzZNRfqFGhuCoGLN3iJwPx9CcJDsGk2TEn0LF+WTX9/qDS8B//mxovw9/1qInILSdt80vgSQJO596sp6ZLRuDo1cfUNG/4+vpmO6gkAbFZ2j71Ca2ohmV/Xl6RZCvuLO/x9VVH1fuXaYdPpdr2d3jrqmoZeT/3z/1T7b+MN9/L818e8So4Ztp06AL+fPV2rHyuphqW493u9jK2dT7RsLwan5nj5jyvnBs5R1b/++0cuodUUNNlezJ/t88TEPdSbTVOlpX3bQYevSHrXL3/vFpeOrluBv/vqJrm7jh6IyfOORERERERERHRjS7XgojvPeJvC/iYnYwz7T+eilOXrmJ0W3vAp+WtpRBUqRji/rZn2EkjJRKIEhKwqlvVD0/dpQe/gquVQKVSvkg6e8UWlJPGXEoX19+WzCfBJU9Zdc7MoNLq6O+9Dir9npyigpsSKJUA4fb/BOHugBJq2vI9Z1VQToo5C3mP5Uv4qvcvDp64jHNGYLBFzVJq3+X9y3Ho2UQPRAp5L3K8zOW8YT0WG/68oF6t63yucQX16u1xc3WM5dzIObJ6+I4y6n2a5BiMbFPVdkxkWVmHrMvboKisc8rDNxtDcl1UxK9Jl2z76Oo4eisr55yIiIiIiIiIqDDxPtKSwyTwV6FEEZSxBHsk8CMZZr8lpxhjHPmXLYpG1Uo4LGOSAJIEkh5aYC+uK4G9rQkX1bYyw8d4Tbtib3HZE7NhFcmEE/O3nVSvEiCTYJw1K7PMG3vxyS+n1T5JAO7dDv5qP63FnOX9y3GwBsLkPcvxyux7Mblap8jMcZN5JZAp58Fb5jG4QztGVrIOWZcZ+MssWV6Oh3B3HDMjs+eciIiIiIiIiKgwSR+NyyOegkjOASdvSJBNAoxmkVmzOzairi0DzhtpaWmYNet9tA1/EA3uvNMY6x0J0L3V7mZVnFkCWWZQVIpdW/dJOjO7Ul5leHXPW/HUJwlqOXn/EnhzztKTDMbMBPCs3K0zs8ftxIU0h+CiGSR0x1NguGaFYi4Dwt6QfZDrx+TqOHorO+eciIiIiIiIiKgwuG5BxDqVi6tMMmvde1K89ceD51Ux5cySYFWzGiVt9Q1mhQSTZkx/TwWT6tbVswozSwJvfZtVtO2HFMGWOhFdFan+aPspW7BLgoOVS/mqfnn/kh1oZjQK6T99KU0dNzMrcV38eTVN1i3b8MTVOmX7wtvjJkWypV5KqcvQnFeKSUt9hZ7IMRi75pjtvcqysj3Zrpw3ee8SnDSLsct8Mr+VbMMskm0u/9Rd5dQ+uTuO3siJc05EREREREREdKO7bkFECR593uUWlcVmFqOVQNiPL95qqz8ws6SePcl6kyLD5jqtrQB7cuXKFcycMR0P/etf2Q4mmfUOSsMfkiEndSKadSZKZ7YeHFC2KIKnH1DjZPooo95Aef9yHKTRGHMZCbDK8ZLjJp1kPEqgTaZJIyxDW1VR23TH1Tpj/rqo1pWZ42bWS2jOK/UdOteJ6EyOgTQoY75XWVbGyXaF7JsURzaLVEuA8OV79WkmqRNxYewp2/Kyv+by7o5jRnLynBMRERERERER3ch8rmmM/kLtm6+/wu2334E76tY1xpA3JBgqrT5LQE8Cg7lBAqiS/WgGUXMKzzkRERERERERkXeuWyZifvPIo48xmJQFUjxaiklnpQj69cZzTkRERERERETkHQYRKVMkI1CKDZudFI/OThF0IiIiIiIiIiLK/1icmYiIiIiIiIiIiDxiJiIRERERERERERF5xExEIiqwXN2+rOOuXr2qhuXVz8/PGEtEREREREREmcVMRCK6YVgDiGa/vKalpal+IiIiIiIiIsoaBhGJqECyBgydyTTpJANROgYRiYiIiIiIiLKHQUQiuiFYMw+trwwiEhEREREREWUfg4hEVOCYAUKTu2F5NTsiIiIiIiIiyjoGEYnohmENFloDiAwiEhEREREREWUPg4hEVKA4BwTNYeurdR7nYSIiIiIiIiLKPAYRieiGZAYPGUQkIiIiIiIiyj4GEYmowDKDg9ZXdx0RERERERERZR2DiER0w2MQkYiIiIiIiCh7GEQkogLDUzDQeZqZgcgAIhEREREREVH2MYhIRDcMV4FDBhGJiIiIiIiIso9BRCIq0NwFCa3BRAYSiYiIiIiIiLKHQUQiKpA8BQat0xhAJCIiIiIiIso+BhGJqMBzFzQ0+xlIJCIiIiIiIsoeH+3hOheeruMwud7TWGAMOSqHoBZhCO/0PJ5/qD7K+hqjiYgy4C5A6KpLS0vD1atXkZqaisuXL8Pf31/NXxicPHkSEX364NdffzHG2Pn5+aFJkybo1LkzHnigLYoXL25Modwm12VCQgK+/vor/LT+J/z22z6kpKSgaNGiCAoKwj1Nm+LBB9shJCQEvr6F44/jhQsXMOy1oYiOjlbDAwa8jBd794aPj48azkhml/f02ahSpQruuacpunTtgkaNQlCkSMH6nVWur/3792PJ4kVYs2YNkpOTbZ/3rt2exX333ef2ujpwYD8+XvgxVq36DmfOnMGtt96Kp55+Gk8++RRKlixpzGV38eJFfPftt/jii8+xa9cuXLlyBYGBgXj44YfxzDNdcLOX91u5T78zZQo++kj/xrjw40XaObhH9RMRERFR/nMdgoh2fnX7YMGSlxFcyhhBROSB9XZl9surq84aRJQuICBAzV8YeAqUWN177714a8LbqFq1qjGGcsupU6fw/owZ+Pzzz1TAxZ1q1aph7tx5CKpd2xhzY9u7dw969eqFE8ePq+E777wT78+chZtuukkNZySzy3v72ej27LN4+eWBKFXK/gXl7NmziInZguXLl+P5Hs8jpHFjY0ruk3vZgQMH8P33q9S19Morg1GiRAljKtQPJbMjIzFv3ly311ffvv0Q0bevQyBR7pXffvs/jHnzTRU8dCYBvSnvTHW4R/zxxx/o/59+OHz4sDHGkQQgp894H3Xq1DHGuPfbb7+h94u98M8//6hhBhGJiIiI8rfc/5k9dCSWbtqKGOnWrkTUlJcRWlGflLJvNl6dFYcUfZCIKEfJA3Jh9+CDD2LN2rXYuGkzflizFpMmT0GNGjXUtI0bN+KTT6JUwJVyz7FjxzDgpf6IilqiAjySHdahQwe8M3Uq5n/4IabPmIGu3bqpTLjCRD6f69ettwUAxb59+/D7b78ZQ55ld3nzsyGfiwUfLVRBQ/McLF60CEuWLHa4h0R//z1e6t8fa374AWlXrxpj88bp06cxcsQIzHz/fZw+dcoYayef4b/+OowKFSqo9/H1Nyuwbv1PmPLOO7bP+9y5c7B50ybVb9q7dy8mTZyoAoihzZrh8y++VMv1f+kllSH7888/44MP5jncIySIKQHEVq3uR+Ts2Wr+/y7/SmUuyjJ//vknZkx/T2WJeiI/7sj9xwwg5kdbNm9Wx12CuHlJjqF0RERERPlN7gcRtYelqhXLoax0/rUR3L4PFnwxDmHG5IT5qxDH51ciykBmAoLWeTOz3I1IiitXqFARFStWVNmYErya8f5MlfEmNvz0k8ugBOUMCaRMfecdFYwRjz3WEat/WKOCuf/618No3rwF2rYNx/DhI9T4VwYPRtFixdS8NzoJXG2J2aL6JSB1++23qyDruvXrvApsZ3d587Mhn4vQ0FBVDHr+hwtsnw0JGkoAuKAIbtRIBfPkfUgWoGQPPvxwe0x4eyJKly6tjk3sjlhjbj3wuOKbb1QQT+Yf8+YYlckpy734Ym8806WLmu+H1atxyBLQ8vMrrt1D3sfMWbPUcZf577jjDgwb9joefewxNc++337LMDi4detWrFyxwhjKnxYtXoTi2vsdMfz1PA0kSqB67Zo1xhAREREVdsNeew0H9u83htzbv/8PvD7sNWMod1yfCn+q349wM4qIg0goON/RiYjc2rJlCy5dumQMZZ4sK+vIbbfccouqd0+cOHFCZRZR7pB64776arnqlwDiyFGjULlyZTXsTIJaElg0M8dudDt//RXbt21T2WudH++MOxs2VOM3btiAv48cUf2eZHd5V6RuytZt2qj++Ph4JCUlqv78Too2d+nS1eW1JcWLa9fWixYn/PWX7R4ldSaa95uWLe9DterVVb+QIs8S3JZj+/fff2PX7l3GFOCuu+5W9ak61xkp129II/2+8tfhwx4DsBJgnB05SwU35XORH8lxij8Yj6FDX0PFSpVU3ZveBKdzwtq1a7D2x7XGEBERERV2Ukpk5KiRHksqyLRR2rPGf/q/ZIzJHdep1vDTSDlh9CIIgS6q40retACv9myP0Hp1UV/rQts/h1fnb0Gyq+9vZw9g/fzB6NG+qZpXn78TBoyJRoIxi9XZg+sQNaY/Ore+25j/boT9uz/GfeJ6/XFT9HXWr9cbS5OMkRbupicv622Mr4vJ24GUP77EuKf1fQyNjDPmMiTFYekUbZ8c3oP2nj/Zk76499k9WCHzmvvfuCU695+IFfvS12eUoaQtWDD0OXRooW+zUeunMW7ZHpxNk3ot9XH1e3+JZGN27V1haW9jfL2JkMLoB5eNRRe1fFPMcapmKnn7l3jPsn6Zp0PPwXhvpWzDmMnG3TZN3u6TRntfc/qb149+fudsSr9GJZPXD2Vs1apVqviduHD+PFauXKn6r5fczkY8ePAglixZoho1WL16tTE286RxCNUwgrau3CzKJg/CFy5eVP2VtIdjKQJpJRk3UtS51ws90ShYv8/8u+NjWLjwI9WggjOpZ+7D+fPVPOZnqEP7h/Hee+/ivHb+reRcSJ1qE99+Gw+Gt1Xz3tXwTnR55mlV3NfV+iWTT+Zr+0AbHDxwwBhr5276sqVLbfsjmYC7d+9Gjx7PqeGZM9835tIdOXIE706bqvbbXEbez+eff54ucHD8+HHMmD7dtv/NQpti0KCB2LNnj8O1Jp+Bb1Z8o/olkNO3b1+HOva8Icf26aeeUtt5dchgFfCVeu9km7Kv1utE5pViuHIs5ZjKMrKPcqz/+usvYy47OVZyzGQ+OYbO3E133ic5Z7t27lTXi2xXrhmpd1DGufvsyTHdtGmTyo5r3KSJatDkoXYP2YrD7ty105jTtewu744Ez0qW0BsSkWs3JSXVdh2NGDFcjRfd/+9ZNc75mpP3K9eBXA9yjmQeOQdyvch140yK9K5du9bhsxZ2X0tV/F2CmOaxvrdFc1s9jitWrEBIo2A1r6vz5uya9nm+elW/hqvedJMqTi+OHk1SRaBFcHBwukZXJEOzRs2aqn//Hxn/8i3SjO34+weo7GdX5NxFLVmM2NhYPKm9t0bGDxr5iZyXftrn9fnnn1fB0SFDXkUF7f3IeZVrLjdJcPfcuXM4o90/pJ+IiIhISspMmfIOhr76qsvv9TJOpsk8Zqma3HJdgogp279ElPGjtl+3Vgi2fm9NS0D08PYI6zkRKzYdwFlj9NmDW7BiynMIf/xdxFmq2UnZtwBd7m+PPlNWIOagPYh29uAeRH8S6xSISsHeuU8jrH1vjPskGnuTzPBcCpL3RSNqzHPal/f+WJG1BAbP9i5Bj0dHIOoXfR/PWp6rE77uj9DWT2PkfG2fHN6D9p5/3GM7BiJl12zt/XbCqzKvuf8XkrF39QK8+u+2GPC192GvlO0T0aH1c5j89RYcPGmMS4pD1PBOeGbaKngTktyzuDs6DF+COLX8GZwxv1ub57HbCMyxrF/mObhpBeYM7oQwp3OZU84Y7+u91eb1o5/f93o+gM7THevgzNz1Q95Yt24dEhL+Qvny5VUmx5gxY2xZbzcaybRZtmyZCmaYwRJ56M9KNqIEYsyMQFnXhg0b1Lpz4yFy585fsc0oXtukyT0obwkiSvHbt9+eoIIaEkiU1oOFNIAgwaiX+v/HIcMoLi4OTzzeWfuDNVnNY5LA6uZNm9XDuEmCBx8tWIDOnf6tApLSUrGQh3JZz7ixY/HUk0+olmJzWlzcDvTrG4EYI/Mq5ZL+vuRYS6agBOTmzp2r9tsk72fbz1tVoxWm7du3qX2MjJxl238pVisZh127PKNaXjavhUOH/lSBNHFvy5YOmV5ZIedi8uRJmDZ1qtqmXGdXjQCn7Jech7feGq+OpRnokH2UY/3oIx3U+zT3LadcvXoNS7/8El209y7Xi2xX9nPduh/x7LPdHI6HVWJiItb/tF71NwtthnLlyqHhXXepgKBY9d13HuvUy+7y7sg1evGSEWCvXBllypRW/d4wr++nn3pSXQ9yjoScA7leejzX3eHalnvF4FdeUdel9bMmn3n5QSGnPvsSUJW6IkXtoNq2lquTEpNsQX7JtHMmWYJlSpdR/ZKRmdF9TRqekToqhb//zeoHCldWa+/tww8/VA2oPPHEkyjqpsXo60XuWVL3ZbuH2uHxJ54wxgJ9+kRox6M0hr8+zBiTO+SHqLBWrXDffWFYs+YHYywREREVdiqQ+M476vujlBQxSf/QV4eoabkdQBS5H0TUvhQfO3kGZ6U7vAfrPxmBLi8ugHpMqxiOsT2bQf9NXKQgbmZvDFgmv+rXRufxyxCzax/27PoF38/qiiCZw6ExlgQsHT1RD0SVaoURX2zADpl/7z7sWPUpRjzh2DpjwrKX0GWavqxf3ccxYvFqW4Mvs19qhrIy08lovPribOxNlyWXPVHTJuFMtzn4Pk7fvz2Dg9X4lPVj8cjQaD3YVSoYPcZ/iu+Nhmi+/2IKBtxmb30RSSswoLseePNr3AcLVv+ir2vTMoxoLUfxDKKHjnWZLZmO9j5HmudBjvUoc7urETXqcWD+AixV0zyJwuRpZ9Fl1mrbcR+iGqvUzuM08zwCZVu8jNkrN+jHWp2X+uqcy7nsMcp47zkmGuOGRqFcxBysWCvvZwNWzOpjtACegr2Rw/GR/iylydz1QxmTAOKRIwno2fMF9cA54a3xGKTd5G7ElpElkPbtt986BCrKlCmj6hy0tppqdeyK3rlSsmRJtayswyTrlizO7AQT5IH41KmTKmAhRQwXffwxXh0yRAU4pB40yQQyM5BUEOSjBSqbTYIyY8eNQ+yOOOzctRvvvjddjZNgh9kYi+zfgg/nqz9ckmm3aPFiNe+u3Xvw3arv0bp1a1uRRwkkff3VV5g2baqePda4CT5csMDW4Mt/tId2yZCSTMy3J0ywZbLmlLlz5qC9dnxjtv6sPuNyXYr169ephhMkgCN/dMeNG68aipD9WhL1CerWrafmExJglHnl/UpdcN9+twq79+zFj+vWq7rnZB2ScRZvBCKtQZp62nqcM70y66effsIvcXFYvHiJOsZSh6K04izHzNwvaRhk1Kg31HvYsGGjarRFikfLvk146y38+uuvxtpyxtatMZg//wO8/vpwtU3pZPtyrcg253/wgSpC60yy6iSDT1pRvl+7TiSwJT88NG/WXE3/5ZdfXP7Kasru8u5IMWgz0Hzbbbdp10R1PNy+vboepN5K08xZkWrc0mX/RU3t2hcrVnyjrm8hRU7kWpPzJOdLPh9ynubMnm0Lxn333bdYvTpaZU/Kurdtj1XX5uYtMeoYSt2D8p7mzJ2L/337HRo0aKCWszaW1LtPHzXOHblPSZawfObq1auPFve2MKZAZbsJue4ruwj4yX2supeBb/l8S3BQgseiffsOLjMR5RhIhrJk5EpL0fmlZfiPFy5UwV/J+Hy8cye0btMaTz75lDFVv39I1qkErzt11r4j5ZBvvv4aL/Z6waGTz1PYfWG4LywMH8ybl266LENERESFk1RLNXHSJAwerAcSpZP+iZMmq2l5IfeDiDFj0blFU4RK164T+oz5EnsvlEPwM+OwdNUMdPA35hOHv8SkSD3wFDx8OsZ2qo+y8szl64fA1iMx+aVANS1h/jeIUVHEZBwxi882CceDd1aBn/GM5lcjGF3G9IAeqtOkbMFH49fpwcegHliwZBy6NA60NfgSFvERPhluzH3wXSyI9iYPz3spt72K6a+1QqA9Yqo9se/BR2OW6PtUqhXGfv0phnQKRqDREE3gnR3Qe3AH6G1FpiBm/nCsVwGvrnhv7ssIrW6srGJ9dBk/HuFqYB2iVtuLVrmT8N18rFCxDz90mLIQY58xtxuon5s5XS3BXXdSUG/gdIxoHWg77oqcx/n6Pvi11tY1tw/Cgqrox1qdl0/w3jP62lNWTkSULaiXExJQ5blliHqpFYL85f1UQVDrl7FgVg/oV88BzF5hFiXPxPVDGZJsPHlglXq5JHA1edJEDBjwsnrIz0tm1lNOZ1w5kyK/knkjGYQSHArTHvg6duzo8sH5wlXtk3kW+PqU3km/jHMmy8o67rvvPrVOWbc86EvALqu+//57tGndWj0ct2v3ICZMeEvt97P/93+qRVoJbpjkAf/zzz5T/f37v4ROnTqrQILsS3h4OHr0eF5N+3HtjyqwKUGio0f1xhOkQYYGDe5U80rgUAJXEuCQIIiQa0OCjxLMkAykqdOmoVmz5rYGXyIi+mp/AIeoeSVQaQZycopsSzKJypZVPxcpEqj86KOP1D7JcZg9Zy46de6sAhuyX40aNcLzPXuqYyDn4MsvvlBFZSUY88boN1CzZk0VvJJrfMCAAWod8odc9l+YQRp3zGLYzp27Iqqyn0NefRUhjRvbgrOyX1LcVvZLAneTJk/G0888o96DZNJJvXZTp72r9lECxzKvNbMyuyR7dvSbb9q2KZ200iv7KeSaMhuVMUkQ7ce1en1vTZs2VcfR1Or++9W+Sp15637UA1LOsru8K3IcJYNz8JDBap/FIx0eUdevnH+5HiTQb5Jgv4yT6XLNy/aWLF6szpE0SCINk8i1JudJzpcEycWmzZsRH68HmRP/1utblP1t3ry5rai7rFOOp9Q9KMvLsL6domq6tbEkyRZ0RzIgB748QB1/uTaGvDpEFTP2llzbvr4Zf02UY/fpp5/gjTdGqfcvdRz+u1MntbyV3APGjnlTXav/1727KoKeH8hnVgJ3fbR7kARmFy+JwlNPPW1MhZr2/fer1A8jHy74SDXCk1MeefRRPNy+Aw4dOoTHOv4bvXv3wdsT3laN5EgG/wStX8Y9+uhjKiguP4TIMjlJfmDq/59+DnXjfhIVpZ3TT40h1/MQERHR9SHPHGPHjMWQwYNVAFGSIPIqgChyP4joQmD7VzFu8OOoZ3+WU5Lj1uv12aEZOreurfqs6oXoYTLgS+xQgacg1HtIjQDWT8KQyHWWYrNO9m3BUiNhKLxvhJGZ5iiofTcjEAesiNtj9OWM0M6tEGQNtIld32O2UXQ6ePBIdPb4g/9ebFmm51/iiXCEOe9/xWCEGd9r927am0Ex3GTE/WQE0kp1QZeH9DClld+94dDbZfTE9Xmyn8dA9On7OAKd3zf8ENYpwgjqJWDLzpyseVDb7/bp98kv9BHb8U35Y79xfDJx/RA5MYOUEjBt0qSJy8Yw0rRZdmj3nS+062q/8fEV0i/jJAtW5nEmQRFZp7UocE565JFHVdDOuRGG337bp4IhEmgIbdbMIQgg/XcH3636pdWvIwkJKoBR5za9wQYpfvnhh/PdZk1KNppZpFKCTM4ZSLJ+CcSaQc1ffv0lRwPBYa3CHAKIQlo4k4Y5hARVJTPTHQkImnXSNWveDDffbP0FDKiivR8JLgqpE08CrDmtbt26aHin3niIybpfbcPDERLSWPVbyftqed99qn/v3j04axSzzQlSfDg4uJExpJNzGRraTGVJCgkaWUnARFrmFZJFaM3crVWrlm1fN2/Z7DIjNbvLm6x1Cza8s4GqS1IaaxHdnn0WD/3rX6rfG9brWzJwJbBodfvtd6jP1Ynjx1WdoKKutl0hQaxp06bhN235nGgBWD43Ejh8rvv/qXoHJYA46o031DnJaXL9vT3hLe2L7BgVQGzzwAMYMmRIuro/JWtZguOyXxJkfO65HumO0fUimZiS7Tnx7QnaOdyrjpdJiqf/8MMP6gcX53tWTpEfjqSl6yWLFyFZuz7kMyXHRjJUpV/GSZBWWsTOrUZofIoUSX+/dRp2OQ8RERFdF9eMf2lX0lT913kp94OIYeOwXorcWookJ6wcgc6Dv0SCU3JNwu/rjL4tGNk2fXZG/ecWGNNTkKqKBJZDh8FTEK4Sf84gZnpv1YBH6NNjEbXd8UE2+cBePeNPE+hv/4LooGKgEdjSxCdkEIjLnPpBtjXbWPep0e3ppztI2o+9RhAUC/WGARy7thgZY0xP81xvkQTu9pqN/jWp7SLIp/F1XRzTUT3UdhH4tJ/H2qiSPj6p0ybItSBiDuXkkdbOocu63G9CFTO2uP6AdgSE99cPZaxFixbqIUsax1AV0b86VBVbk6BUYXRQ+3B/eRKI1T63V1w8d8m47do0mSc+5+NNNlJE2rlI8pdffqHqN3SuM85sPEHqP5M69JzvM8/36KGmS7AgTftjJee5hzZOglQSNHt/xgzVKIQ0XiJBHmtARAJJspyoWtV1dmqZsmW1/TMyF7XrJicDcbfeWsvos7PuU506t6lXd44nJ2vHRa8rYsGHH6JB/XoOx6ZxSCN8++3/1PS0tCvqYfsWS2D58OFD6R7AJaNovrYu6eTcWLNCXZHppZwyz6z7ValiJXVOnMk4mSZyujXuqtq93Gyow8pTfXpbY2Js9wWp08V6HIPvvktlSwqpT9JaR6Upu8t7cvvtt6v6ZKRF3sw0gmO9luRzYt0n6eTzZLb0fOWyPt/997dGZ6No7A8/rMa//90RbR94QGUDu2pgyBvymVu5YoXKGpPgpATIZrw/U7X67ZwZaJJA67nz6bNmZR8OH9aLhJcsWSpd0E/OwWuvDVUNQYmuXbvi7bcnqgxYK8lUlCLVUienXMM9X3gh0w0M5TaptmDylCkYNHCgCiQKeX/y92z+/A/T/QCR0+T+88EH87V76HTb9oU0BjXz/fcxd94HGd6jskoyWqdPn6FeTZJNK9mwJlfzEBER0fUh3zulFWZpRGXau+/i9ddfT/ejfW7Ku0xEo0jy7PGt9Prw1o5An5mOjVxkSfUOeO+nDYga3wNh/vqDzNlflmBct5boMDw6XaCSCHcGwhZG5vWTo1q1aoXq1QO1h8rFKjto2OvDVfZJYQokJl/RiyyvPQuc8+JHIZlnjTbvitPACT22kCskACBFkiU4Ihku8kAv9R/KA3521K5dB599/gXGj39LBWCEFEWWLChpoMU5UFmYSDFtMxvvl19/tTW0YZI695o3b6E6KeJtBlBvNNJwT7FixVS/BKzWrF2j+jMi9UlGf/+9wzWa3eWtrHULShezdSv+u/wrVb9lXmTJSSDtzTFjVF2iDzzQVn0uJdA4evQbeO657qp15syQAOJ//7tM+yI5TF1rkk380cKP1bXlKoBYrbpe8bYcJymu6kzGm8FFqRvRPIdC9nPI4Few5ocfVBB59Og38dqw1x3qdDXJvkhDUUK+4Dr/QOGq1Wtp9TuvSSNBcgwjIiJUIE+KmUvL9dZi7LlKO0cSuJWsVcm2la5evXo4d+6s2wAwERERFS7OrTBLp34Ad9Nqc27I8+LMgZ3GY6xqBAQ46NDIBVClplnUphXGrtUbuHDX6Q14GHyrILjTUMxe+wt2rPoIvRsb61/WH9ONug2rVDfz3oCEJDdFuc4eg9nmqF+DOkZdhFp/OTNLMAVI9yySgjNZfEYuW8Wefeh2n0xVA2ErpNvzU5fHxNbNedy2764VRzkzg/CEtv9GrwPLscgs+3k8ALftQZxKNhp1AcJsWZiW/dIOdbp8ypTTXgWdU1w9L6bsxl690Uig5k1wKJTkxfVD3pNAYpUqVVW9exJIlF9Jtm1zrBPtRrVdu0C/0C4Zd42neHL0MvDdySuIOZm1DCRvyIPovx5+GI888ogalsYEdu0ymsrX3FJDr0tD/hitWLHS9f3F6CQwYZKHbKkDbdl/l2Pl/75VjY4IaaBlw08/qX4zYCGOHXMdVLYGLQJvucVWTNUMTKiHfKdsPgkQma3pZlblKvaMKXf7ZJJggtna7Asv9HJ5TMxu0uQpat8lCCHF0oUEVqURjZwuDmjdrxMnT7gsAi91IJrFev39/bX3rf+FKO7nhxJGgCTtalq6fUtJTcGlDLJB09KuunxPEmRKOKLnfFfV7gdmUE4yA80Wq8e/NcEWwLN20jiLFPEUcu84fvy46hfZXd7KWregdGXLlstysMZ6fS/8eJHL68LspN5Nk9R5KI0MSVHVnzZsVA2ySDBRilVLUdrM1F8p9dJKo0SSESmfxxkz3kdgoPtSDjdVvUl91sU+bb+cz6M0InL40CHVf0fdO9SrkB8GpmjXuBRNloZ8pJGZJ558Mk8Cr7lFGhySVg2l/tBXXhmMiD59VN2m5ucjL8TEbFF1fMpx7f1iL9Vt27ZNGxeqTTOLmhAREVFhpRpReeWVdK0wS32Irlptzi3XoU7EKugw+FWjwYoDeG/0Ehw0gj6B9ZoZxYnXYakXjYO44lejGQZMHAmz2usVu4xQVf0QdND7ED0rymXrywe/mo8Vqs8PnZvYW+Ss6m+G77ZgfZxTUOnkeqz4yujPJL+GjWx1MEZrX8JVK8Hu+Na319/3yTd6AytZVhv1wozeXQuwVG+lxoH9WGReYEPzPCZg9kcrkOwi8Lr+80ijSHEwwoLNkOdNqK4nMmnfptchzikx4uzab7xqMTp6Y/r3k/B1lDZFF9aikd4Stwturx/KlHbt2tmKf0nxS8nsKQzkhvq9dvn96QNczcTdtZTPNfxx7Dje2XUYuZ1vIsGtrt2eVQEuyRCS1j8l4CukuJwUQ5U/Pps3b850wEsCIlIn3SuDB9sacDCDlIGBt9iy8qS4qXORWtmWNIQhLe5KECWkUYgxBfAP0OsflMDU77//pvpN1tZ0MyuoVpCtCPFnn36qGn5wR4pa336HHkiR4IJZNNUTCVJ17drN9kd+8qRJqqhpTtR7ZypbrpytLkZpHdcaFDZJHXxmq7nSWIcZlJXPaIXyevaj1ONozZSU8yHZY1KHnyfbt29LlzEngd1V332nlpVz2ShEP5cyXjIDJVgsx+Tuu+6yBfCsnVSLYNZrKO8nbscO1Z/d5XNT9WrVbdeSBIvdZT96Io2nSF2B4eEPquHffvstw8Z5TBIklgZA5NjI/VZae3aVFWhVrXp11XiHkAaYjh7Vi8UL2X95HxKQlEaTzGtM/PjjWvzvfyvVveKtCW+rqiw8BV/lfUmdg64CvtK5avV65KhRxpjcFxe3Q2VVSnHm+vXrqyogXh44EANe6o//e/b/jLly3/p161WdstOmvoM5c+aqTvpPnDiOn34yfwUlIiKiwkgFEFUrzJNcNqLi3GpzbroOQURN0ON4NcIIzP0yFpOWGQ1r3Pk4ehvBrbjxz6CHNHSRdEbPLEs5g7OH92DF/MEYt9JMb4vDgsELsP5gsj37LCUZe9dGGw17AB3uNDIQy4ajx0BjmwffRZfuE7F0ewLOntTWm3QA6yOfwzPj9aX8Wo9HnxZ6NpqoEhxma6U3etQQzDGWSz64ApOfH45oY1qmVeyAPrZ9WoAuT/THgrUHkCz7pHUJ27/UvtSuMOpmLIfwbkYLwxeWYEDXEYiS/TirB8xSTibj4CZt/r6zbe/dPT+EtjdbK07Agr7PYPJKY7tyLKY/jc7T9nrROrMbdbtgSHt96ZSVg/Hcy/o5Usf6cByiRj2DAZ/o+x0U8Ro626oNq4Lg+2xHGiOHa+/lsBwL7b2tnIjnxnhzpFMQNfAZjFy2xziOCYj7ZAT6jDLqaazeA33am0HLTFw/RJmwKxX4n3aJH/eFx6BgcZ9rOHfhHN7ZGY/oJPcNQOS0O+64A08+9ZTql7rYpOVRCRpJ0TlpFEJMmTIZkZGzVDaSZENJnXZ/HT6MefPm4rtvv1XzSOBi+vT3VADKzJiSLCUJ6iUn6wE5CUAIKQ752GOPqX7JmJKHdqk3UYpRyjZkW7JNIZmSTSyZjnfcUVcFPYXUuyjBLVlOAkRvvPGGaoU2KyTbUTK2hJ7986IqninBL1m/7N/cuXPVe5eAoAQXJHAijZMMGTwEW7Zs1u7BZ1TAReaX9/XWW+NtWX9C6ot8/fXhqi5KCdK9+uoQdPp3R7VeeR/SSX+P57rbGkjJDCliKplttvUPGayCtBIQlfchgaBBA19WVQpIkOvxJ56wZYxJkEmCikLOWeQs/XzLsosWfYz5H3yggoCeyHpl/RKktJ1LbT0ffvihmv7QQw+hYUO9MRjJCDSzkiV4JUEsd+pq59wMvq7/ab3KsMzu8tllDcrJcZXjJA2XyPUn+2I2xCIt244bN1YV3ZVrRz4bclykLtIFC8y6naFac5brTa4hIdfRnj271fUl5HNqbrNoUV+tX68PU7a5c+dOHE1KsgWHf//9d1sjQTf734xffonD5s2b0nWx27fbjoX8oCDXjnlNvzn6TRXEl/c1d+4c9T6EtSEka8vYMk4+7662I535uTRbmHYV8JXOVavXkhWaFySA+MqgQdp3rXe0e5W90SJpwGTJkijVWFFekPvv+vXrVD2qHy9ajJraZ1U6yWqVcXLMM/ujDhEREd04pN5kaZHZ/NHaFZk2ZswYzJz5vjEmd/hoX0py4VtJHCbXexrqq7I0rOKqeO2FdRh3X29ESUZdqVaYtHIOOkiyyZFojHyxP5Z6SAALG78BszvJGi3bccGv9Th8M8PSOnBaMtZPfhEDFu5xWyzWr/HLiJrbB/Uc6vxOQcz4+9BjcfqirbKNETVGYORCGZJi2HPQ2Wi0M3lZb4QN14NXPRY7FcE2pSUgelRvDFjmJvPS4filYO/c7ugyzVNdkj0QtXeoLejpXgripkug1tWxqK3t76tAt94uzmEylvZuiZHqR3EP27pwAFHDn8G479IfM1NQpxmYPSbcsWGXC1swru1ziEpXPZOfdt5HovbwERnu04DBMZg9xcX7KlUfved+ggFGceVMXz90XTnfqsxhebV2kuUlr/JALv3ywCydGVDIKdKYxVKjAQepW03qt9uhXXRjTqhRNmWKAM2Ka5dfGmDmn8mvNz5XUrDowFGc0luJsokMDkDTiiVV9phkB4nHH38cN998s+r3hgRzpDieBKUk8DVm7Dhb0WCTZNL169tPBQ/kD877M2chKChIZZVJYwlmK7WujBs3XgUfrNtxRR7EJaPIbERBAhCzI/UAk9kIhTNp3XXMm2McGmeQczn1nSkOARiTbMPPrzg+//xzdY7nzp3nkPFo1rcmD+PWItgmCYK8++40VfTaFevxk/2QIuDTpk11u/8SlIucPVsFQkxyPUrG3ojhw3H48GFjrGtSv9ygQa+o1qKFN+dS1v/jjz/ijVEj3baOLcdGfp2UorNWcv77/+c/6X6xlKBk7z4RqsVYmSZFuAe98oqaZt0nCTpLluY3X3+tpllJAFUqe5Z6M8X3q1bh5ZcHqP5hw163vUdX5FoZNXKEakHZPK/79+/P1vJyXXhzPN2RIHq/fn3Vfpis65ag7ag3RqnAoDvW4yj1xX7wwTzV70w+k9NnvK+OoZBzLPNOmzpVDZvM9VmvdU+cr0+5pufMma19LiNdXtPP9+yJ//ynv+0YZfSZtzLvExnx5nOaW17q/x/0erG3LdB9vcj9Pj7+oPa3pJ0xxpH80COZ4nKPJiIiIrqerk8moijVCn2Gt9L7L6zDyCnRUAXqqodj7NcbsGBUV4TXrWLPhqtYG/VadEDv8Z9i3GNmSDII4TLfnbXtxVNLVVHzDZm1EuudA0C+VRD22jJELx6HHm3rI8h8xrMus9A5gCj8EPra/7BgcAcEG41vyP6Ev/QRorVt1PacqOGZbyDCx2vbNfapirlt2ae2XTHi+fstAVg/1HvxU6z/7xT0frSZff+18VXq1kf4MyMxe2WEFwFE4Yfgl7RjMX8oOjQ2j3M5BLXtgUn//QRDGlsq+K8VmD4InJFStdFlymqsmKWtv4Xlfcl51LYxdvEGrBjvFEAUpZphxNcfYcijwbZlygaFY8D8HzC7k/4wlZHQnp9g6ZQeCA8yMhm0bYY+OhQLVi6zBBBFJq8foiyQhlNWXwKkkGmaD1Aaadh45Chm7D2SLoCYl6S4sbSmKiRj6uOPF6pgqxRH/uijhRgxciSCg4NtmWhS91lYWCtMePttVa+ikAwmqXtOAlNmC70SfGrZsqUqliiNRlhbYZVAxEsDXsaCjz5SrcXKOoV1malTp6Vr3VUy5/q/NACvDRtm+/VNlh04aBBGvfGGtnzWGySR/XvttWGqcQvJJJN9EfLatm04Oj/+hO29yX4816MHPv3scxUcMfdfjpE0KtO9+3MYO26cqqfQSop6NmlyD5Z/9bUK4EgDN+ayQuqtk3GTJk3G+p82eAyOuSLrl2DeJ59+hhdffNEWaJD9atCgAQYPHoIvvlyaLoAopJjq+zNnqkC4vE9Z5t5771UtxYaF6UWCPZFrQAJ61nMj7ycioq92nhfaAohybUlGoJDz2+Se9PtiJddKs2bNVb8EMTdt3pSt5WO2Zr9OOckIm/D2RHV85DiZ512OgZD9kuv3nalT1TzWz4Scf8lI7fH882qcuC8szOFasJ6vJVGf2AKIQs7xs8/+nwoYmvPLq3nMs0qu6T59IrTrcg5CQ0Nt70v652nXgAS0vQ2yFkQSqL3eAUQhP0K5CyAKmcYAIhEREeUHuZSJSAXe2Wi82rS/Xi+iNOQy2LvQ5PXhZXYkFWjOtypzWF6tXX7LRDSV9gHuLAL8ePoCTh097rbBhJzIRCTKTdnJ5iMiIiIiooLr+mUiUr6WsnOLra7H0Jr2jBkiyhzJ42vgC9yv9VTW7rgly5SCf1AgKtxUGT5FeAsmIiIiIiKigoFPsJTehT34aPoSo07BYISH6k2wEJH3pEGVW32BB4oCtbQ7rbWBFSmaWK5SeVSrfQvKVCinDRsTiIiIiIiIiPIpBhELrTjM6TsWUSvjVAvYquVk1cLzEozs+gzeM+pM93smwtJ6MhF5o4p2Z5XMQym+XMxDgFDqI6vkXwX+twaiRCkWByUiIiIiIqL8i0HEQuzM2iUYN/hpdGjdFKEtpGuJDj3HYuk+PQex7EMjsXRwK6PRFSLKiNTS2LQo0MxXrwPRW8X8iuOmGtVQJfBmpBnjiIiIiIiIiPITBhELrSB0GD8UXaytVAtL68kx07oiKF1L1UTkTogf0LoMcMkYzoyiqal4qZIvmlcsaYwhIiIiIiIiyj/YOjMRFQjOtypzWF6t3fVsndlq2RltnlQ4ZPJe1br/OTXKfO3yFbQqehkDqzkGD9k6MxEREREREeUnzEQkIsoFncoB3SsCPr5wWURZApxBly9icbUi6QKIRERERERERPkNg4hERFkgLSwLPz8/bNu2DX/99ZcatirtCzxfEbivLJBiqSOxXMoljCmfhndqlESZoulvw7IuWaesm4iIiIiIiCg/YHFmIioQnG9V5rC8Wru8Ks584sQJfPPNN6qFZVPp0qVx//33o2JFa0WjdqvPX8OJ85fw5E2uMw9PnjyJH3/8EefPnzfGQL2PRx55BJUqVTLGEBEREREREeU9BhGJqEBwvlWZw/Jq7fIqiCj++ecf/PTTT7h48aIxRt+fJ598MtNZhJcvX8ann35qy3AUso777rsP/v7+xhgiIiIiIiKi6yMXg4iJWDlyFGJCx2BMhwBjnIhFZK9I7X+Df0eMGdseao4dkeg1yzYFAY85L0tEhZXzrcoclldrl5dBRNP+/fuxdetWtb3y5curzMGsWLlypcpGLFKkCEJCQlC3bl1jivckoDl9+nS1T6aIiAi1PiIiIiIiIqKsyr06EZNiERMYgoCvltsDhjYhiJg3D/O0LiJwOSJXJBrjNU0i1Ph58yK0ZSOxMskYT0SUT9WpUwddunRRLTSHh4cbYzPvgQceUOt65plnshRANJUoUQKvv/66upfK69dff41Tp04ZU4mIiIiIiIgyL9eCiInbYhDQNAKhTWIRs8MY6UJI0xAkHrEEEW1CtGUTcdjVJCKifCg0NFQF8LJKlm3WrJlDkebskqLQUkejZDgSERERERERZVUuBRETERsTgNBGepAwdmv6XERdIlYuS0THx1wUs0taieUJHdFRWwcREWVNUpKezm3WqxgbG4tevXqpbuLEiar4s3TSb46XeYTz+Llz59rGv/fee4iPj083LBmPsszHH3+Ml156SY1zt35X++JM1jd06FA1j7zKeqVBGyH788UXX6jtWMe5WqeMN7crrMPS/8MPP9i2425fiIiIiIiICrPcCSLuWI7lgaFQocFG2uu2GKcizVIvojzkjdLm64j21jYDtkXqD4AjlyOgk1FXIhERee3SpUt466231L30888/x4svvoiSJUuqoNm2bduMKiPmoX79+li9ejX27t2rshXN8VJ/ogTRpG5FmcccL8xgnSfScrWsT5avVasWFi1a5LAeWb+7fbGSfZgzZw5atmyp5hk2bBh2795tTNUdPHhQBf2kHkoJBgrrOmXb3vj+++/V+mU52XfnfSEiIiIiIirsciWIKJmHkoGok2LJzkWa7XUizmsag14jV8JWatlWJ+I8hG7thVHW+hKJiChDZp2IkydPVoE4MxvxyJEj+Pnnn/UfarRO6kpMTExUQbNdu3Y5BAhTUlLU+LZt2xpjoOp7lKCdBCk9qVSpkmpVWkgmoRSlNodN7vbFSvZBmMtWqFBBBRStZJ8kQGpmDkrL2CZZTrbtTX2QTz31lFq/MN8nERERERER2eVCEDEWMdu0/2fpD4bSRcqwuyLNkqmYdNgeRLRwX18iERFlRIJijz76KKKjo40xUMPmDzXSSZaiZAtK1qCQe7a12G92SRBPgpp+fn7GGDtX+2LlaVkiIiIiIiLKWzkfRNwRg1hLNqHeRSBk23LXLS3L/P41XBZblsBjQHUWaCYiyqp69eqpYJwEBqtXr44NGza4zcyTIsERERGqmLEE7mQ5a7FeCUYGBQWpDEXJ/pPsRSGZjn///bfqdyZ1MUrmonPx4Iz2RZjLSnFrIfPKMq7I/ggpvm366aef1L5KMDUgIEC9LyHrOXDggOo3mdOE+T6JiIiIiIjIzueaxujPEbFzeiGm6TxEODWIIuOXVx+DMR0SEdkr0lJHohRtjtDrT9wRiV6zLBkwEozs7aLRFSIqdJxvVeawvFq7q1evqte0tDTVn5qaqrpq1aqp+W90UqxX6gaULD/JMBQSQPzss89UnX8SWJOiwyYJGorIyEj1KkWRZT4JvEmwbcKECaqOQ3HPPffYsgWlwZRp06ap7UlAUIJ4UpRYgnZSj2Hv3r1txYOd1yPblHoRpfi0877IeCvrdmTfGjRooLZh1oHYpEkT2zIyj2RU7t+/Xw3XqVNHNboi+2bdB1mPdFJsWZY161KU4tXC+j6JiIiIiIhIl+NBRCKi3OB8qzKH5dXaFfYg4o3OOXCYE3JjnURERERERDea3GmdmYiIKIdJVqIUm2ZRYyIiIiIiorzHICIREeVbkiVoNtIlxZq7d+9uKyZNREREREREeYfFmYmoQHC+VZnD8mrtWJyZiIiIiIiIKOcxE5GIiIiIiIiIiIg8YhCRiIiIiIiIiIiIPGIQkYiIiIiIiIiIiDxiEJGIiIiIiIiIiIg8YhCRiIiIiIiIiIiIPGIQkYiIiIiIiIiIiDxiEJGIiIiIiIiIiIg8YhCRiIiIiIiIiIiIPGIQkYiIiIiIiIiIiDxiEJGIiIiIiIiIiIg8YhCRiIiIiIiIiIiIPGIQkYiIiIiIiIiIiDxiEJGIiIiIiIiIiIg8YhCRiIiIiIiIiIiIPGIQkYiIiIiIiIiIiDzyuaYx+omI8i3nW5U5LK/W7urVq+o1LS1N9aempqquWrVqav6csvPXX7F+3VpcuHDBGENE3ipVqhTCWrVGw7vuMsYQEREREVF+xyAiERUIzrcqc1herV1eBRFnzngPnR9/Ev4BAcYYIvJWUmIiln75Ofr1H2CMISIiIiKi/I7FmYmIskAyEBlAJMoa+ewwi5eIiIiIqGDJV0HEHw+eVx15Fpd4CT2X/o1/LTikhq9dA1rP+xMvaONkGhERERVc/D7kHX4foows230GPsN2O3TL95w1phLlPefr0UruYRHLE/HbsRRjDGXW6NX/qI6Icg+DiAXMzM0n1JfjJxqWQ61KxTE75gRmbjmBBjf74XFtXM8vj+B9bR4iIiIqmPh9KGP8PkTe+DXxEt54oCquTWigOumP+/uiMZUo7519sx6euqs8yvmlfwy/cvUaGvr74ZGPD2P82mPQBomI8h0WZy5g5MvxPYEl8dDtZTBa+yI0+H9HMXzVUYxpe5Ma17h6SQRpX6aJiIiIblT8PkSuSAaSNcvrzR+Oqc7dsHTMWqK8ci71qsqWLuIDHBhyuzHWrpivD/o2q4St/YIQ/cd5/HvRYaQxkkhE+QyDiAXEh9tOYuOhC6herhg2aa/ipjJFce7Nejg9uh4qlfJV4zYfvoCbSvuqeWUZIrr+JKPo+S+P4KEFh9Duw0MYuCIJf52+bEwlIiJv8fsQeTK67U0q29CafeiuM+eTZYjywiDt+9/tVYoj6ulAVNHuT+5UKOGL1S/UVEFF+YGEiCg/YRCxANjx9yVMXJeMaRuOo+WcePRrXsmYkp5Ma7/wMN7beBxva8vsTGKdQMrR5XgppD+W8+8w5bGf/rygPo9THvbHdz1qYtXzNRHRrBKe/iQBCfk4kBgfH4/Ro0fj1KlTxhgiouuL34dyAL8PXUe/YhqPfaF14HgqVv1xDnP+Xc0YAxXMdqdoER8seLw6Pt5xCruO5n4dib++1wiNQ7TuvV+NMdkj63vp6+PGEBHdSG7gIKL8oTZuhqqbqo3JWXl1c4zccgKDWlbBl11vwdHhd+DFphXV+Fe/PYpb3v4dAW/9hmGr9G8kfUIrqXk+73ILBt5bGbO2ePfr+/Gv+2vHyP0XG/WHpf9yFNg/BTd3xPTYGeh4szFMlAekbptBK5Ow5OlAW3aMkF+h3+vgr6ZlRIJ5L730Enr16qW6uXPnGlOIyLRq1SqcPn1a9V84fx4rV65U/ST4fYjfhywK2fchs/iy2WWv0YXjWN7f+lnSu2lxxuQcxADMjWfezyfxsnYvKlPc+8fvsn5FVPHmuVu9q99Vv39Zr08vg9ZHl+ODhc9iQewObB9wlzGyEIub6nQcc+dz7klG94CcuEc4Xy/W9am/dbZpxnWkfoRy9R1Cvzfm9TGi6+fGDCKqD3534EPtRig3Q+m+DcIPBfSP8W/JKdh7LAVnU64aY6Aq2z10KhXre9+KzRFBOHzqMib8mGxMBc5o8+47loo/tGW9de+9wNhPXTxaqD8sRj9l6Lz2AOutzMxLBY/8ctyqVimUKpb+VtsksCROXkwzhlyTAOLs2bMxcOBAzJs3T3W1a9fGxYusFJ7ItG7dOiQk/IXy5cvj0qVLGDNmDEJCQoyphRy/D/H70HV0Y34faomR31o+T7HaBfG89pCdQ9lbdONaH38BbeuUNoa81/6Osli93/vPx72jV9uvzw9rYew4L3/0uDcI1Y1e0nRfaPmc78DAYGP8DUEP+j0Y/QC+t7zHF+IXqgChBBB7wPL+v30ASNQm3Hwf2ty7CD84BwuP/oQ1eAP/d0MdI/Ikz4OIUjeY+Sugc/fjwQuqczVNOu9aKvwV056PV3/gHT7sN3fEwEcraz1GUYKv9V8YzIi7QyTe+kVARdzNKLwZYdc/eD207w0bR7fVxtsj8m7Xkw1re9XCrRWLofH7B4wxwHsbT2B2x2qoVbG4mja/c3XM2GT/ExEy4wBuq1Ic3/e81RjjhfAH0G3h6nS/Lvz66ZuoNfoNaN+pbRx+nbD8Iq/ev/a+7dMdfwFzt5ywHruXvv5VO8bWZa2ZFG5+VXPx64isU51j52kO59UcL+c1/Tbtv6rI8FSj372PFnyIzZs2GkPuxWzZjI8+nG8MZc+I11/D6FEjjCG7zI6nnHU+9Sr8irq/zV7zoq7satWqwd/f3xgCHnjgAZQsWVL1S1HjoUOHqgxFyVaUoKNJMhbN7MWJEyfaAo8y/uOPP1bLmeOt65EuNjZWzSu2b99uG88sSMpvJIB45EgCevZ8QQUQJ7w1HoNeeQUBAQHGHPkXvw9lHr8PCX4fyl/uwsDYhdr1Ms/t+bVm9zhydS7df6a8Wqdxfpcb15B5ztwt6+5z6jDe4TrTz7312pJ1m9vRr/vl6j04Xk/muqzb9+JaNlj3f1qcdR+kX1vW033Mad3W/VXkxxbjvev7b/3cOs2bDVKlwm1V/Iwh79W7qbj6cSRLgtui28aDOGIMujzf8v7/9SY2bnwTDxrv1/V5dH++3F1f0LZsP/eez3FW/Z6cihMX3P8oL9P+0ObJEerzZXkf6oc6/fjIMdDv127er8O91sXn0Ha838L72qure4DOu3tE+uXsjn89GmPrLMT2GR0h3wZMdw0YpN3RdN1aWTJSte8NHdX3iMq4L7wlFq9zXLP8bUT4fQ7ryg4+1+Z/N14mYtxqLL73AdznsZjGBoyNb6si69Pli7R2A7BG4hegu/2PUMxBtDF/cfzwWSx+Xj6QldFxhjZfd/PXHuMD52E92SX1YlgDDqWL+8BXmvYylCjqo42zn06Zd82B80g8m5k/Ovfh/0bH4wPrPms3PElvfyDUGFZ+xQ+2XydWYyTexJvWZRZ2xw+t9GPw/WhYfgHzsJzTsXsD8zDW9r1TbpaWTIpvH8Caf7m4Mab7deQ4fooG2oQ639K0P4L/+sFyXoEe6gu83Bi14xZj7NPRg9oJbon4w+Y+atdW97Z6vwd9Ivpi08aN+Gn9OmNMehs3bsB67eH3xT4Rxhi6ETX0L+H2YT/x7BUUsXyGXZHgoQRGFi1aZIyxk+DfnDlz8NRTT6kMRclWXLhwoQoISlepUiU1fvr06Wr+1atXq1exe/duDBs2TAUOU1JSMGHCBNt6Xn/9dZQoUULNd+LECRw4cMA2XvqtgUqi62nTpk04duwYunTpitTUVEyeNBEDBryMm25iIwkKvw8p/D4k+H0od92FB7pvsB0vCQjYs3hWo010WxeBKHfn0vVnyrt1mhZhDUareeUHBLfLOl1rtmKsMn50Lb1oq3TurjN3Fv6gPdXLsrLv8j7bYk24mR23EG3UTF5eyxrH/d+BB9Z1x2Jjms7FfSxb+2//3G7/9g3EP58zwa8MvvK5JY2rZLWB5uNfz1OfVY/35eBB6n3ee+8baprtR6d059H1+XI+P+ocGDaOnmesQ65p7Ty5yvDOpmHfHcWDHx5SLV87O30pDeHz/8Tw73MoenlzR7wh93L1PrRjMn8Run1o/N3TWN+vygK1XXdyr30Ttczj5+ozbDver+M/rv6u2ni4R+zXz6G+ffN+7kz+HmxwDBI6uauV/I13fd1XDn0A9zr8yKb9PVvY0sXfF7qR5XkQ8f6g0qoVNFfd/UGlVOdqmnSyrFfqBGkfL09aYuTT5gfHuAH0tEfi5YOzMV7/zabyo4Ps9cbIrzlGb3qe15Md982Jx/7jqYjtX9sYA3SoWxavrExSX46lk9ZeH76jrDEV2rxBCChbFG0/OGSM8Y7cGDBaT2UWx2O0G9ro7k43r7sw0FZfhv6LhIPuC21/gNSNxvYLmLvl0h+7yo+Oxkjzp/64hRhrTZFWX47jcTDdjU1fp+1LrkqtTv8Apf9B7eV4Xo19rFyjFjZG/6RuuOq9h2vHwxw+HO/xhmvy9fXFy4NeQUzMFqxdo63Dybof12LThg1qnmLFihljs2fcW29j9JhxxpBdZsdTzirnVwQta5ZS9TBZpaZdU601D29dxRjjmmQcSqBPOGcC7t27V73Wq1dPvUrAsWLFijh58iQqVKiAxx9/XI2XddSvX1/1m1q2bKnmEQcPHlRFpM3in7Vq1bLNL4HIJ598UvXL+mVY1k9E2cfvQ5nH70P8PpRfVa9lnsNf8fFoWD5XTufC5PW5FF6u0+ZZvGAL5HhYNiDIck2ajGvQEhiRwMkL3V0UYXTHek0ZxRzfsO3PXeioAn3evn/n/dfWMGCh0/3HxX0sW/tv/9zqy9oDxNlR/2Y//J6JahVMf5+5grpVixtDGdOz0xqp7k0JJqt7TRbuy9bz6OF8yb0C+w+qe4Oze0ePtq1Dtuduvuz4oHM1pF29poKFFy7bA4nS/4B237+ijZrbyd6YjdcWdneZ1afuyfvnYfnX2jGpY7lWNNb3i+Du2r1bv+70e6113sro2PNZx4w+6/HONONzMsJ+ftX28QN+cnlPaYlangpsqMCyBIrlvTsFE50/T179YJk5fK7N/268TESRhRvUYqnPxLxRPL/Isg5r6rbzL1/puVpPdt2p/dGpV9VPVa5rmvFoACqW9EWNib+j2oTfUKKYD957xF7ksXwJX7XcY/XtX6S94nBjkBtSLcsXETv5tcN8nw+O3mCMdeHmIGh/WmzcL5fBzcxIsdeXbYuxGzcgXupmcKK+9BtfclWxI8sfSwcOfxjkvBpfXGxfoOVXmlp44FHtjyTMYXjeRwv54jxw0GBs374N36/6zhgL/LA6Wn2ZvhG+MFPGfjuWgh/jz6ugYZj28PvG6n9Upf8PLzikKtduVcu7QMCLL76osgGFtWjy/v37bY2uyOuuXbtsQb5vvvnGVgz566+/VuNcOXLkiFdFPyUYKUFKovyiRYsWqFq1KqKilqB48eIY8upQvPfeu/jnn6w2mnAD4vchfh/S+vl9KPcdid+AWjXMI7wBY9XDt97J+XUZrPHyXOq8XKdLbpbVrvHpkq2kxlsz9dJfgxIkdR+09CDxIDa6+zHD6/dfC0GZClDk4P5r7AHi7GlZszRW7jtnDHlvxb6zePC2MsZQxvTsNMlEexYbLT+ECPf3dy+4O1/Bg/B9+A/6NJeZbwYJWhu9OUnu/+t610LaVeBf2vfrFO07t3TSL37qUwsVtL8DmeZQJ6I1G1ACgLUwdjSwwPZjkCuVEVTH6NXcW8upxkk5Hln4G+2e8+dEtu/uM+XpXmOQ+4O8dyOYaM2alIDw4vn6uf51nWNwmgqHGy+IqL70uIu6u+NcSbLWqToC5AvzPNSyTXP+5cuZ6/VkV+/QSpi6IRlPRv2Fam/9hllb9Ba6Jv3rZvz12u1IfP0OTGin3zWmbzqO6tqX6Kc++QvTNh7Hc431bKPMuOvpNxCv3Rh+/Xoe4tP96q5/8X0wvpftPX4/2rs/rp6Xc76ZHUH8RqNXONzI9c76y4+N/DKmfnWR1Opn8YCreTS2P7C2zmypUIqkyEODtv06kv4vN2Bj2MWv+J6YX5z37t2DZUu/xKrvvkXs9u14eSADiIWBNKrSafFfWPJUIMY/eBP+16MmWgeVRr9mlbD6hVvR7nbvvxCann32WVXUOClJb9X5nnvuUcFFaycZhRJATExMtI179NFH1fzuyLxEBVGrVq1QvXoglixZrD4bw14fjqnvvMNAouD3IX4f4vehvGEWdbcdY6OVW2vnKtjg7blUvFynSx6WlYwjGXYo+pg+wOAYJM0kd4ESr9+/U4bi0YPaGE9ydv+z9d4tejWtqO5fxz3U3+fs2PkrGPPDMbxwTxZ+xNXO7QLtM2yvlsHd/d1LHs5X5UdnqGEVTLTUrZlXpOTPml63qkDiuxuOY+pP+nte9+KtalrOkqzOeHTrHo8eHt/rcRzcbw9opwv6ewqwZ4lzJq/j9u30bGTneg3dUj82OGVN2r5feP77QjeuGzAT8S7832hg7L/SV2Y6zVpPjY18kKz11FioP1KWqL6k6xq96XlYTzaFVCuBwWFV8FKLytjQpxbmxLgvTjj/51NY/mwN9G9eGa/fXxV1q2a+Al/9i+eb6KEdR1f1G8gfU/uvKXq9Ct5wv5xxMzN+0RAq7dvoVzeqhd091P1ipZ+HNZ+uRrxZB4gTvYjSaMfrw0L9Wjlfe2Aw9lV+bVHDWagwVr44/6f/ABw8eAC//BKnfnGXjBm6sf2adAmPfXwYX3a9BXUq6+e7TPEiqghiYHnvH5ikgRNrIycSPPz7779Vf1BQkKqj0DrdJEFBM7tQshb37Nmj+l258847VQajuR6p89DT/ET5jQQSq1SpirNnz6pA4qhRo7Bt28/G1MKM34f4fYjfh3Kd9nl6SdV1ZmYq6cFXz8EFTabOpZfrdMnLZW1Fm41rUNV5anAIklZHLWt9m3FTVQMPbqlgg7Wu0F+xXNXD5+37l/13rEtPMmutcXVHGe2/fl3bAyK/Yppk5FlZG8lR7y9ngiS3VymuWlrutUz/HpcRqZ6hx5d/o2P9srbvkpklRb9rqc94Nu/LXp4vT0Wbc5t8z47uWRPNapRC6C0l8V2Pmg714+YUvVGSXhg4oJd2TBwbVLJmfqr5jB9cVHUWDsfPKF7uRbUQ3jE+J9bzq4qgu/7Bp/Kjsu/d7Y3rGH59Tz432r6953idSLahI317a8ZJMW3Xf1/oxnYDBhHlgzHDqMzUTLnWunHA/7kohiJk/gV1rCnaRsruzVJ5aryR5q916+Dwy7v8Qg1Lq0hu15MDet1TES1vLYW/Tl9Wr+Kfc1dQetRelHljr61VqmY1SqrxMk9WfnXX6fU0uKubQf+DZNa3MRrxdbz75d3Tcs7H7k30stcBpN2aBqqKje3H1VO6vPpSvHARarm7MatfVJyuD8tNVC2vfTuxPTBofzhrbcz6r5DmL/DMQCwcth+5iA4fHcZ/n70F9W7KwkOrhdR3GB0dbSuWPG3aNPTp00fVWyh1Gkr/Rx99ZJtuFnWWegw3bNigxkmdihJYcUfWJY2ymOuRbZitPxMVFO3atUPZsnpx1VKlS+Phh9ur/sKO34f4faiwfx9644GqDp1Zr2jWORYNbvyvg3jBkpEl7hqwGiP3W4uJu2qgwPO5dP5MebdO19wuG6e3aKw61cCOHgiVa/B76+ddvUczSGrU5Wbu97q2qoEH97T3GWu93rsjXl0/3l/Lzvv/QyvPmdCe91+mGwEUNX01HvhQ+4xbddeu+3HGsqqFe2tR1uyZ1sEfe/5JQcdFhz1mJEoG4qMfH8bBE6l495F0qWSZYP6YNBVHsnVfdn++rFUzNH4eWJCZ7MYcVrJYEfzvuRqI7nmr6s8W2zWid6oRGrPRHpXJqx0Th8ZTJLM7CD8Y86v5zGMh91qH49cW8T09ZR5ra3e6BzhLf4/Y4Xh+5wfhe7fnQj6XzvcF+WzJta59xlsddLhOVMM5TpnPqk5N7e9BzgVCqSDxuaYx+q+70av14kfZ++N+Y5u5+QQWxp5SxSP/u+esqudHWuySinqlIvER3/+jviz/p3klY4mCSopOaX/Y07VIRYWV863KHJZXa3f16lX1mpaWpvql1VbpqlXLQqXKHkyeOAFDhg4zhuwCJ/yOr/7vFjSuzkAckSfuPkPE70Pe4PchcmfsmmOqLuKx4Z4/P3KNlCzmg+GtqxpjqECQ7M9xwBu5EKyyVTXgdVHxzJPgYbfPErDp0AX8p0Vl/Lt+WdxWpbgqiht/MhVf7DyjqmqQerMXPlEdlUploT4/ynO/vtcIH9Ra7dA6NdGNKl8FEX88eF69et3qYCEVl3gJ7286gcOnL+P752tCzuADH/yJ2pWLo5/2ZTk4wH3WUUEhN2JXv3pQ4eV8qzKH5dXaXe8gIhF5h58h9/h9yDv8PkSuSCCm8YyDOHnRc91z0iCDtPR9a8W8yYqknHAcy/u3xZrw3AnW5EUQ0fT9H+fw4bZT6n5/9NwVNe7mMkXRpnZp9GhcAeGZaEylMJMf3d784Zgx5JqZhZybGESkwiRfBRGp8FJ/tK2tE977BtynYFNh5HyrMofl1doxiEhUMPAzRJQevw8ROVKBdGu9i9LARy4F+fIyiEg3FgYRqTBhEJGICgTnW5U5LK/WjkFEooKBnyEiIiIiooLlhmxYhYiIiIiIiIiIiHIOg4hERFlQqlQpJCUmGkNElBny2ZHPEBERERERFRwszkxEBYLzrcoclldrl1fFmXf++ivWr1uLCxcuGGOIyFsSQAxr1RoN72K9U0REREREBQWDiERUIDjfqsxhebV2eRVEJCIiIiIiIipMWJyZiIiIiIiIiIiIPGIQkYiIiIiIiIiIiDxiEJGIiIiIiIiIiIg8YhCRiIiIiIiIiIiIPMrxhlX27t1r9BERZV29evWMPp3zrcoclldrx4ZViCg/4PchIiIiIsrPnJ+5vcHWmYmoQHC+VZnD8mrtGEQkIiIiIiIiyjx5jvaEQUQiKhCcb1XmsLxaO3dBxBLFi6r5iejGVb5iZaMv83x9fY0+IiIiIqLCKaMgIutEJCIiIiIiIiIiIo8YRCQiIiIiIiIiIiKPGEQkIiIiIiIiIiIijxhEJCIiIiIiIiIiIo8YRCQiIiIiIiIiIiKPGEQkIiIiIiIiIiIijxhEJCIiIiIiIiIiIpf27t2LH3/8kUFEIiIiurGZX3rklXLP2e1L8N6yPUgxht2Jm1IX9Xt/iWRjmIiIiOiGcOwQOg/bh6hjxvANIjExEd999x127NjBICIRUXZcvnIFFy9eNIZck+kyHxHlPeuXHnmV4fxk48aNGDNmDK5evWqM8UYylvaui/r1rN1ExBlT88TZOMzp3x5zthvDmmNxUfhoUQyOGMNEREREOSVpzT50XnPaGAI2R+2GzzCzSx+4c5yudVFJxhSdrM/VcioQOPUQHOfWqADhAWw2Bu1OI2rqbozfrfVWrYmlE+qiS1V9yo3g8uXLWLt2rTHE4sxERFn2+x/7Eb16DbbE/GyMcW2zNl3mk/mJKO84f+kRMizj8wMJII4cORI//PAD3nzzzUwGEjXd5iBm01ajexnBxug8cX4/dqw+gDPGoAjquRI7/tsDQcYwERERUW6QAGELVMa1CQ30blBJ4B9johHUc5iudZtwHD5OwcFOVYGui1wEDF2pWgGdq17CGgkWWh07haUog54NjOEbzLZt23D06FFjiEFEIqIs2RH3C/7YfwDFixVDgwb1jLHAOfgiDmXVq+lObXqxokXV/LIcEeUN5y89QoZl/PW2adMmjBgxAoGBgejYsaMqbj1+/PjMBRL9yqNsxXJG56ePS0vA+im9EdZYshObosP4dTirjU7ZtQSvPt1UZS02av00ov7QZ5eMwgV9W6KRGt8bc2KMQsZJX6KPNm7yF9EYp5a7G51HRSMhzZjWegTWa70LutmzIB2KKSetw+T+7RGqsiSbossYY1lnbvaXiIiIyJNxd/sbfZqqNdHFCOIlrUlEV//KuNbFMl3TvEsglmhPafOtQcDgAGzyP4d+lgxH98qjTbAvRvziGHLcHH1OW08FqK05ZyuqYTMb0hjvnOm4+4B9mpBhp6zJ6+Xw4cPYsmWLMaRjEJGIKAvS0tJQtGhRtH2gNW6qWhVp8MFelMYPqIR4lFSvMizjZXp42zbw9fVFWmYzjfKBlStXquKWKSkZ1XRGlH+4+tJjkvEy/XrZunUrRo0ahZo1a2LGjBkYOHAgnn76aaxevRpvvfVW5jMSLZK/Gos+n5TFq//9BTu2f4I+/qlISYvD9O5jkdBqLtZv/wXRU+4HLmgzp+3BHG27S6uPxzdx2vjhgVj63H8QZTk0UWv/Qed3V+P7GY/j7Bf98dFG7T5Q9RFM/u9IhGrTu8xykwV5NhXVn5uD1dr21s/pjORP+mN6tDVvUedyf41pRERERK40v7sERix2VffgaayJS3MMMNq4DgI271IZIdGJXtVj6N+wJDrtPG8p0pyENTt90blheWPYKgnjp15E50FGNmQ3oIUEDyWjERexxthe0lHJiLyMeGN48y+X3Ox/3tuwYYPRZ8cgIhFRll1T/x9DcaxGJexDaVyFjxonrzIs45NRTI3z8dGmXdOXyYxDfx7C4088gZb3halO+mVcXmnfvr0KePj5GZlORAWAqy89VhlNzy2xsbF4/fXXbQHE8uX1L50RERHo0aMHoqOjVSDxmjf3ivlPq8xC1RkZgJdS5Jf0szhzJgV+pWqjQ89wVLlySQXmzpw4jUu+fqjSuA+63K2N2PU9Zh9shR49WyFQ+3xXafsIwhGH9XH2Jk+6dO+Kev7lEKimAQeOat9wtXWUreAHuSP4lbNkQVrdFo4ujQNRtpS23rB2atkzF1L1aRYu91efRERERORag9qqCPPSqZLh5xxM9EWtm4xeJ/43689ljvwxvFsx74o1V62JwQ0tRZp3n8eIqiXRxkUdiElrTmFEwwr2+hEblMa4Y1cQj/Ko5Z+GpTvlO5AEPYHOwbANxyeVQJt8UjS6YcOGRp+dj/YlNfNPtIadv/6K9evW4sIF+TmbiCh3lCpVCveF3Y+Gd91ljJFYnH7rkldrJxk88iqZgtKfmpqquhLFi6r5c8q27bE4fuIE2oW3xdgrlVC7iA9KFrEXYTYVT7uMrUnH8Wb1IlgV/QMqV6qIJo1DjKkZ2xEXp4o4vjN5CmreWlONkwDiK0MGY/jw4WgUnKe1oBHla+UrVjb6tO8oO3eqzD532rZt6/DFSDKFc5sEEIcOHYqgoCBMnToVpUuXNqbYffrpp4iMjMTDDz+s5nVNGlZpiZE15iCmbyN9VFE/lC3rp4oHR48fjBGfxCHVvxVemjEdPe70Q8quBRjQ/12sT/JD8DPjMWl4OEp81Rthw9fpy1uEjd+A2S1+VEWWay/ehyGNZWwcJtd7Ggt6foo9g7X7jlGk2T5dL87c5Y9xWD/ncVQ5uwcrFnyIpT8dxLEje3DwpLHeTlUc53Ozv0RERERW0hBKPwRgaRunrD9VPPgcQro1wPAGUh9iAuLbSb8x3cK6Duf1ST2LU/wDsbThKXReBMwcVFMvouxMihuvKopEbXq8tsyauy3bUvtyBYMn1EYtbf0B0c51ufhiySDte9A/2jp+KY1r4SnoHO2HpdZXT9vOA/Ic7Um2gogzZ7yHzo8/Cf+AAGMMEVHOS0pMxJdffIZ+/QcYY/JXEPGlK1Vx/poPgn0uo5qvL4r4FEGxa2lIOHkKy46cRtmiPlhar3Smg4inTp/G+HFv4T/9+toCiCYJLn7z9dd4+eWX8e677+KRRx+1BRQlyPjlsqXacv1w8dIlvPrqUOzZswf+/jfbgpEyz/szZ+Guuxpizty5GDDgJezV5pGghZlxOHv2HIQ2C8XfR47gr78S0KdPbzXeDGImJR1F/fr1MWnSRJzW3qu5TVle9i8ycraaVqF8eTUcsyXGtg6i3GANImZWXgQRR48ejeTkZO1zMUn9OOLOF198gUWLFuFr7TPumhFEvM0I6LmSkoDoic9hwFcdELXdXtz47K4FGPLERGDiBsyuPh/1uyVg0qYZ6FDRmMGULkiYmSBiM3z/dFt8VH8GPuwfhsCKe9WyB1wFEfVF3e4vERERkbAF+ZyDiEICexKU6+KvgoMBSRXS1YmoN7hiDzCmD0omYfywU6jVrSSWrvIUyDPmG1QB8VPPo82E2mhuTHEOIroMeiqyDm3ZbsAa1Nb2xz485WgVN8vkjYyCiNkqziwZiAwgElFuk/tMQch4jrtWDKvTimDvpVTM2vsXlh45bRR4zpr4+HiULVtae//p/3zVqlULZ8+ex8kTJ9G4cWMVoDPt2r0Lde+4Q/VPf+89RET0wYaf1qsAogQOJTgp4v88iEqVKqpp4eHhan1JiXoSv8zzzz9H1XasZLysQ9Yly8m6ZRsVtfUI2/InT2r7XlYFF4XsnwQkiQozaUhl8uTJHgOI4oknnkBUVJQx5EHKaZw9ecbWpWjf+eIWTsT6wylIQQmUq1BOny9pBeZ8sgfJKSkoXq6qKoas3NkOPapHY/aUL7E3SdaRgLj5K1QjKRkqXR6y9h279uBsuttzMo5Jwy3Fi2t7kYKEtd8gfb6jzuX+EhERETmw1j14Wvue5Fj0WOoRNPm3qYBxO487NU6iBxClwRVXGYo6o1jz4nNYZoxxzR9tGqZh6SIprlzaHkB0IvUnwm1diyVRq+plTFl12Sh6LevUh13Xr5h/sE5EIqIcIDUh3qL9F+YLXPTxRdVagShdrow+MRtuuulml3URlixRAv4BN6v+OxvcifMXzquGT6Tb99tvatyevXvV9Pr19NajJRgpy5iBvVq3BuHeli1Vv2QL1q4dhBOnTqphCWDKtmW81cYNG9R8ZmakGWS8eu0aSpcqrQKYsg+//fY7gu++2zYsnAOSRIWNNMZUsqT2hdILZcp4cf9Y3BuhLZrauulxQJWyCZj09N1oFNwSL20KwoiFEQguXQWXVr6I8GBt/L/fRkrPORjRvgrgF4whH05Bs0PvoktrbR1tn8akI34INFbvUdkwdHkpGAfe7oTQ+951CjwGo/P4rqjydW+EtX0Oc1LqoZUxxZnL/TWmERERUWEnwT+p9/A4YsMDjPoFy6PL3VcQYGv1eDdawNoasz+GTwjEkqTjtuk+wxKwNDjQRXaikwa1sSl9NYDpSMMuy465a8DFULUmlkpQUu2/0dkCm9LIC7AM9voUm99dTFtnMdRyUb9ifpKt4syTJ07AkKHDjCEiotwz6e23HO435q1LXq3d9SjOPDKtKuoU8UE5vU0VxKak4W+jfsTUSylITT6Bz2r5Zro4s1lk2VrE2CQZgZIB+NKAASqg+P7MmXi8U2cVBDSLDcvy/fu/ZCxhN2PGdFSqUFFlFA4f8botUGgWOe7R4znb+iRYKK0zm8WZpX/C2xPV/CazmLS57X899BDW//QTwu67z/ZqLepMlFvye3FmIiIiIqL8LFeLMxMREdDO5wL8fFz/HlPctwg6V3XVCljGzCLLZhFhK8kUFBJAlMCcFF+WrD/nYsPdunZVxY6tnbvGWGR7UoTZzGB0VYxaDHttqMP6vvziCxVsNJc/GH8Qdza8E+UrVtD286Aalv1jAJGIiIiIiKjgYhCRiCjL9NTDlkXO4wkkw/faZVw1Y4nXriHo0hnMKXkKT5a5aozSJvoY6YpekAzB++8PU42YSGMmJskYlBabu/9fd1tgToovb9++XRVrNosNy2vsjh1qfm/I9qQIswQi3QX9ZDvLv/7aYX9MEtAsXaYMVqz8n8p0lPXVqhWkhmU5IiIiIiIiKriuaxAxdk4v9JoTq/oTV4yy9ee8WET20raldZE7jFH5mDoWsr8jV+JX6ddeE41p7mR0/GT6qBUZrYWIvCVFH69cuYLVa9bin2PH4ItreNTnJJriFIqlXcEQn2QML3sJRX2uqenRq9eo1HDfIpm77bZv3x7Dhw9H12efRcv7wlQnrR5/8MEHDi02m1mDUi+hWTxZXocPG6YCjuayY8aMsdVR6IpkMa7+YbXboJ9ss29EhMP+SCvOwsyILF+urG1/JCPx7NmzKiuRiIiIiIiICq48qBMxEStHjsJya2k8/44YM7Y9rO06qyDXkY6Y11vqCtOXOdxpHiIa6dOzw3Hd+Z0EPJejxtgxaJ9BnZ9WGb1HmR6JCIzpwNa0qWDKb3Uiir2//Yb4+EMoUaIE2twfZoxNb82P63DpUgpurVkD9evVNcYSUU5jnYhERERERFnnqk7EjRs3Yt++fThz5kxeZSIGoOPYeZg3z+icAoh5IaB6QQqeBcBNVWRElI/Uu+MOhLdtg+ah9xhjXGvRLFTNxwAiUd6TLz3z58/HtGnT1KsMExERERFRxr744gts3bpVBRDFdS/OnL6IrWTi6ZmLsbP0Ir36HPYiyb206SvNzMaklRjVKxIrV+hFgJ2LK6ttfJWIxK9keqS2FjXWsi6tsxQDloy9XnNWYuVImWbO70gVwzaXtRQ11t9PrLGsdXnJrHTaN2O/HdZvG6fvnxwbfX8sc6l5nNfvgnU+L4pDE1HWFCtaFCVLljSGXJNMRZmPiPKW85ceeZVhGU9ERERERO7Jj+8JCQnGkC4fNqwSgoh5Y9DRX+vra2YtShAuEpBhlckYihht2B5Ai0UMItQ05+LPIb3nYcxjAQh4bIw2PUJbu76uRDWsry8CkY7BzG0xQD+ZJvM7s29rnuwnliPSsmziV8uNZbX1NolFpAoABiAkNACxW+17nCjbeKyj4/r922OM2qYcA22/0xU91tY3MgahZlZnX2jDrgKETvP1A5Z/xTAiEREVHq6+9JhkPDMSiYiIiIjckyLMzvIoiJiI5bbsPK3LbAMqO5ZjOTqioxkg9A9BqH8iEm31LIago7d1/RnrirDMH/JYRyAm1h6Ma9LRQ32EIYiw1TuoBwetAh6LsC0b0lSbL0HbTxnfJBQBRr8cj9gYILRJ5opYJ65YjljrvjUKRUjSYft+G9LN598eEY9lbltEREQFmasvPVYZTSciIiIiKszM0jxW16dOxKw0cJK03FKMV4o7J+JwVpPrAgO0PbLw14ZdBOPcUUWMjX2RotJuBdSwb0cCn4hBrAQ+kySbMRQhbgOVHmyLtG1bL85sDabaFaw6IImIiHKWqy89VhlNJyIiIiIiR/mwOLMbTcwixPYuyy032zICDUnasL8l4OeBrRVkYx+kqLR3AtC+UwBitmnbkqLMoSFebc+ZXizbehxct+KceMQxuOk8TERERERERERE5K2CEUSUYrvbItM1mpIlqgiwYz2GsVKPoZdBPQnG2bP8pFhyJoJz2rYDYpZjeUyA98WvLaRINL6KtDcq44YqOr1tuUPjM8u3Gf3aPtsbebH0u2rohYiIiIiIiIiISJNPg4iStRdiaZ05BBFjOyJRhs2ivFlucVgaLYlAgGqtWV/X8upjXDRi4lpIb+uykTgcmJlgYAhCA2MRGxiq9WWBNLzSNyDj+iWd55sJdGSdiERERERERERElEU+1zRGf6ZNnjgBQ4YOM4bIG7FzeiGmaTaKYhMVUpPefsvhfmPeuuTV2l29elW9pqWlqf7U1FTVlSheVM1PRDeu8hUrG33AtGnTjD73Bg4caPQBvr6+Rh8RERERUeEkz9EmV9+nGUTMS1JkeCYQMbZ9lupDJCrMshtErFatmpqfiG5cGX3pccYgIhERERGRXUbfpwtOwyoFml73YK+RMQjtxwAiEREREREREREVLAwi5okAtB/rviVlIiIiIiIiIiKi/IxBRCIiIiIiIiIiIvIoW0HEUqVKISkxa20kExF5S+4zcr8hIiIiIiIiousjWw2r7Pz1V6xftxYXLlwwxhAR5TwJIN4Xdj8a3nWXMYYNqxBRemxYhYiIiIgo6zL6Pp2tICIRUV5xvlWZw/Jq7RhEJCq8GEQkIiIiIsq6jL5Ps05EIiIionwkdk4vjFqRW9XFxCKyVy9E7jAGM0n2rdecWGOIiKgwk/vpKKxMMgaJiAoBBhGJiIiIckPSSozq1Qu9zC5fBN9CEDFvHiIaGYMeJWLlSMeAY0jveZjXO8QYymHbJ6J+vYmIMwavl7gpdVF/yvXeCyLKETsi7fdgsxu5Uru7FTLq71Ek+BMQEWUXg4hERNmwMi4Bo5f9kmE35r+/IvHURWMpIrrhyQPbyBiEjp2HefP0LqJ6YuF7cPVaMpbOPYixa4ci2BhzvQQP3oCxf0RiKbOLiG4MTSJs92HpxoTGYBQzCImIsoR1IhJRgeB8qzKH5dXa5WWdiJsOnMK7PxzAG53uNsa4VsLXB8eOn0DcoZPo88Dtxlgiymn5qk5ECSLOBCLGtkeAMcpOisDFIHReBMycPikmHNNUzxCU/uXVIxAaE4nl6iE3AB3HjkF7fzUrEleMwqivjHCkPBybmYGScTPLzDORjMMIBMi8R0LRMWG5ti4ZF4qYXstRQ61P9kPr76uNm7VcD3D6d8QYtc8yzZK1YoxPVPs2BmM66O9K9jVym+rV6NvU98bFuq376kyyEOfWxvo5j6OKNrg5ajem+JdBSPQ5jJDpDSvjWhdg/LDjlmHjgGiS1uxDQLR5/n2xZFBddKlqricQS9uUN6Ylaes4jzYTaqO5NiTTW+zUp3QKt8+XvKw3wg5GYM/g6x3SJKJskfvi1tB09x51Hz3S0Tbe3X3VnC8CkbZ7XUhfM5vbuM9Z7s+u74mS1T0KhztZssDVD02H0dG8Jz8WgOVf6XdctX5te+b93L49nXUbAY+Z92MP91yHvw32ZVyvh4gKO9aJSESUS77ffxbXqtbB6J/Oe+yGrz+PCqWKG0sRUaHgH4JQLMeoLBZhTvxqOdDPyJzpqz1cjjQCetrD4KiYUIwxs2rMB2P1kAhVVFll2jxWQx8vtsUY67IHLe0SsXyZfbmIQHOf5eF3DDpqD8byADvPRTBUHq4jEzra96UvEOlQTNC6bm3b27SHcDd1McatXYCwdverAKJpWfQVtJnQANcmVMa4ncfho4J/9uHxu40Zdx9AQHQxbFLTtG5QSSydegCbtUnN7y6BZXGnYEs42n0eIxqWVgFECTy2QGV9mQmB6ByXYFtnlRbhCPtjP5L1QSK6wQQ0CUWAdm90dV+VAJ5DvbTavUt+5FH3ubEdkTjLdRaj+3tiAEJCAxC71f73IFHuy491NO7J2r3ySKixTAhiZ/XSA5+2YfsPOmob2h6qado9OjRGG7bdV93ccxtp82v7re2FmibBQsf16OOIiLzBICIRURZduwakXZXsx2vq1eych9OuXjWWuH4OHjiAp556Ur16MvWdd1SXHcuWLs32OogKvgC0H2tkk2ShPsSAxyJsmS1o1BEd/WMRIw+DATUQkHTYEqjTycNpSF97kDCgQ3t7wLBJR/u60glAx372AGGI9lBre7D2KBbLv4LDsmo/oS1re7i2rjsEoU20R9wjzntuV7umNYQomYFVVLAP8EebhumHY4+e1vpPI2rVJYzrpmcWKlVrYnDDS1gjAcEGpTHu2BXE61Ow+Rdt3rvlYCRhfjSwJNw8MOXRJtjXWKfGvw5qrz+ABH2IiG40/gHGvSkRK5dp989Olvtg0xDHe1WTCHsmoH97dGySiJht6e7CHu+JKmiZYFZpkYjYGGj3RHNO7V75mHHHbhSq3S2dh7Xl1H3V2IY5TZtPgpP2ffX+nhtQXZvLtj9ERN5jEJGIKIuuXruGK2lXcfmq/nrlqta5GL6Slv1aIyQw9/RTT+HkyZPGGM8kWNind2/b/EG1a+Ozzz5Xr54MeuUV1Ymff/4Zrw4ZjEuXLqlhIso81RDJPCOYmOXK/LWH3UCjV3uAHSPZLaqBADM7RXsQTAhADduTazbYHqy9oc3rEJyU/UzEYTdvUj20upSMA38YvVnii1o3Gb2GWv5mQFACjkZA8dghTEkqg54N1CyaNHSduhs+w/ROikMvS2LdtUSFQpJ23/SvYbvfqew/s+EVKfrrIcDm/l7m4Z6ostONH1mSYrW+UIS4/XHHk0QsH2nfVymC7TFQ6E6jCKNuSG09Wf7bRESFEYOIRERZJBmHqVeuoniRq5jRrjxmPKh16rWcem1Xq7iannrFXq9EVkggcMuWzahR4xbs37/fGEtEBUlI7zFOWXqZ4RQklKJpUgTNofiw++Bdpjg9WHumzevwfpz202tVUPs2ozdL0hD/j9FriE9KQ8jNev2GUqR5xC9JSNp5EQiuAPtzewl7EWizs9SzSEQ3rlipMiJUcv5EADpaGsFSncv6bHUStHMdoPN0TwxA+04BKoNRFWW2bTuz9CLJDvvqVN+jtwI6jFHLq2BiFqveIKLCh0FEIqIsunoNuHz1KtLSrqJmed90nWQqyvTsZiJK4NDfPwBPPPkUflq/3hhrJxmD9evVVZ1kK65ZswYdOrTH+vXrcG+L5iqL0ZqZKEWNZZxJxknGoXWadN3/71msWLECIY2CsXHjRjWPbMvknO3ojszX9oE2tn20blvINs1pq777zrYvRAXaDqf6/yTzxPZwqT1UmsWThcxrq4hfJ3Uimo90iSsisdxV1oqtaLNR35ZDvVkrbf2eJdoq85f+lTOtD9aeSFE5bdmZlgyWHctd76eXDhzKSg2EejHkEYv1OhAVyTjcWQJtzIxDKdK88zzma8e/c0OzgRU9Q7FFlJuobtJ+HAirDTMBlIhuHKpBkYSOiFD1AMr9E473MmfbltvrQFT3a+3+Z2noROfFPbFRKAJitHExAeiYpToIZRuxiMzhgB+LNhNRZjCISESURSpIqDINr6HrsuR03Za/UvTplhauskICh/eFhaFOnTr4/fffHeo1lKDeO1OmYOOmzdizdx/69uuLRo0aYcWKlQgLa6XGd+rc2ZhbJ+uSzEazmLIZpKxYsaIaFrLMwo8XoUOHDojdEYd7770XzZo1dwhixsXF4cEHH3RYzpkEA19//XVMeHui2j9Zl2zbDEaaAUWZJt3u3btx+PBfahxRgdaoI2ossxc56zUyBqG2FjwlI8WoPF+mbQ1FRBO1lE3AYzUQYyw76qsAeyvP0oCKwzr1ehAlo2TMY4lGMWdtmRjZije0h9nqMcY6R2F5YISlgn3Lfroo7iZFtVVDLOb+LKthtOycecGte2D9wazVQOjfpi4Swy+jhVEs2WfqFQw2Wl/W6QHDEUkl0aaqMUrTvEsgliRJgy1mkeZ9iDqmT0veFI31t9VxaOiFiAqobZb7ptZJC/PWTEO5fzrcy7TO4UegJqHATGParER0NO67zjK+J4YgNDAWsYFSz2HWqKz2BOv7cd3ISzqqLkdpwVn7+7AiUTWsYluHNMqVxXs3ERU+Ptc0Rj8RUb7lfKsyh+XV2l29elW9StP00p+amqq6atWqqflz0uCv47HxmB98tH/a1rUxPlp3Ld1w0SI+mNeuFH7cexR9HrhdG+c9CRhOmjQJE95+WwXrJGvv1ltvtQUGZViCgvfcc48aNjkvZx0WE94aj2GvD7et01yHdf0S6Pvi88+0L8DjUKJECbWOxUsW49VXh6p1TJo0Ed26dktXz6IEBv/8809Vt6K13yTrlWBkj+efx7DXXtPW96ptHRJ0tO4bUWbI5940bdo0o8+9gQMHGn2Ar6+v0VeYyAPlctSwBTevp2Qs7T0ceHMOOnNfiCifkGDbqCMds1xk2JlkQUpLz7aGWoiI8pmMvk8zE9HJlStX0KVLF1WEj4jIE6kT0cw0lLoPL19Jcz2cjToRJdvv9ttvtwXUOnbsiF27d6ksQunOnT+HypUqqWneknVJ5qFkIEpgUNbRsGFDY6p71apXV69/HzmiOmGO80SCklayv7LNlJQUlCtXFhUzuf9EdCOqgs4vBmFk64loMPOgJTsw77u4KS0x8rYIBhCJKGclrcTyhI7oyAAiERVguRxElF9ypZ6rpxF10BhlSF7WWxs/EXHGcH5w+fJlPPvss9izZw9GjRqFZcuWGVOIiNIz60S8rFpgllaZ9X6HYTXOMYvSWxIklKK/H3wwz1ZnoNR1+Oknn2Dnzp1qnnNnz+L4iROqPzMk81CyASVIeWeDO1WmYUZknn/962G1TGaWk0xEK9nfMqXLwM/PD2fOnMVJy/5Lv4wjokKo8VDs2TsUu/sFOTZ2ksdd8OB92DM42NgpIqLsSsRKaVFZqqDox2LDRFSw5VEmYhzGvb4EB7NXLViukgDiU089hX//+98IDw9HZGQkFi9ejKVODQAISe806xIjosIrzWidWc8+dPMq07X+rDADhVKPoFlnoHTjxo1XAUAJ4Ek9hVInotkQiTSm4k2jJFK/YlJSospqDA72/mFZlpNlpGvdpo0x1j1Z9//+t9JWB6LcO6WItAQxJSNSsiyXL1+upgnpP3XqlDFERLlLWvnMD0WZiYjyJ9WCcbaLMgegvWr9mfdbIir48iaI2KkHeiSPxaRl7irMTsHeTwajS+u7VaZNo9a9sWBXij4p6Uv00cZN/iIa455uqk1vii6RcTh7xBy+G51HRSPBDFCmnUHc/N4Ia1wX9Ru3RJ/ILUj2Ingplcp269YNTz75pBouXrw4PvvsM/z3v//Fd999p8aZLl68iCNGUT4iKrykYRWVcZjm+VU6CThmlgQKJUjonO0ngbmYrTGqKLLUXSj3LWmFWe6fK775BiVLllR1DEqAzmyd2ZlZpFkyGd0VSTaLOEvrzGYQUJaTLELpzCLWnsh+zJ07D8NeG6r2T9YlrUybdTj27ddPBTNlmnQNGjRAjRq3qGlERERERESUf+RywypSnFnqlfkUO+5bhUeeO4jeq+egs/a8KsWZw4YHIWrvUARr88V8vRtVmzZD9XIJWDqwPcYdeBlLV/dBPQkith6BmNYjETWqHbBqODq/vQV+dR/He+8NQNDv7+H5/l8ibP5WjGjhh71z26PzV80we+6rCPVdj8nd+mNPz9WIeibQ2CfXTp8+jfLly6v+IUOGqHoRpYVTqSNRMmfKlCmjpolz587h6NGjqO3UmAAR5R7nW5U5LK/WLi8bVon4/A/877A0nuKZrzZLm/LH0Kv1bQitXfDb+nTXmEtOsDbe4k1RaSIrNqxCRERERJR1+aZhFb/QlzHimS0YOeZLe9agTRWEPtoKQf5+8CtVGw+2awUcOQ0jF1Hp0r0r6vlXQb124QjTpoQ+G4GwGuUQ2Doc4dpwQpLUoRWH7+ccQFhPbVp1bV3+4ejwkDb2p4xrXjQDiEICEKaiRYs6BBCJiEydg6vg7gqpuEu68p5eU9C7zY0RQMxMQyyZJT/YzJ4d6XVdi0RERERERJR38rB1Zj+EDZ6OLtvGYtxXCXCuUTB50xKM698Jnf/dEuHD1xljLYoar4baNY2HcV/Lg2bSfuy9AKwf3tJWNK7LfG18GusvJKKc1/b2ivj6hfr4Rrpe7l+X92yAe4IKdgBRAnyvDhmMF1/shW5du+VYkE+yGs37tRR1liLWUkSbiIiIiIiI8pc8DCJqSrXCkGmPI2b8WCy1tNacsmkswnuuR/Xec/HRpxsQPb6VMSWT/OtAChiHT9nq0AjBnjmP69OJiChLJGg4afIUrP5hjarnMKcMeuUVh/u1DBMREREVHKcRNXUfoo4Zg1mUtGYffKKSjCEiovwpb4OIGr+wV/HeY1swZ7492/BscoIquuznVxw4uQffr96iT8i0egjvGYjoWZOwdFcyzp48g4TtC7DiF2NyNkgdiH///bcxZHfhwgX89ttvxhARERGRI/VgOOwANhvDNrsPaON3WzrrPEkY7zBtN8bvNiZlSF+285rTxrAp/Tqt8+j7aZ3uYp8dGOtz8dC7Ocq+v/p63T9gy7w+Uw9pa7NKv6+eHq7T77vRqfXKA76r8Tq1fds0Yz/TnRuz83xMHNblcn/dnRs718fDlNFxsU53POaOx8jxfXiahmOH0Nk2zcV5dDhWro5Pxu/ZZD1+rubXp2d0XRJZGNdn+vunXJe8lrJKPovefKaJ6MaT50FEVay5/xR0KGUMaqq0HYAhrXdj8qNN0XZ4DMqFNjOmZJYfggd+hEmh+/Fe95YIbXEfukxLgN/NxmQvPfjggwgICDCGdDfddJNqfOWvv/4yxgDnz5/Hnj17cOuttxpjiIiIiKySMD+6GMY1vIQ1roKADSvj2oQGqksMv4wWDgGhEthkTLs2qAxiF3v3wJu05hRiG5YA4k5pW3dmWeeEygiJTnB4uO4UHui4P26DWSZfdEo6nmGAs1NVoGu0izUdO4QpO41+kwpaHQe6mfspXSCWIMXtvvi3qWufT9vWOHPZQTXhr+bwxZJB5rrs4+VBuAXs5+DaoJLAP9qEBrVt4zY1tB6X2miu1peeBOJaJJVBoppP2w8Xx8XzudHI8UgqgXG4iDXOwboMj4sESy3TuxVD16nmNaNdh0kVbMs5ntvTWAP7tE3atWq/DrV1LjqHEOs6F1muCQnQrCpqvGfp0h8fec8jjH5P1PGznQuna9MIZK7xL4NOxigir1X19fr+SUREnuVyELEKOs/Zhz2Dg41hQ8VwTNouRdekZWZNqfroMWsDduzdh5j5PdCh+xz7NP/HMVsbP6SxDLgY1uYaog3P7mTWkRiIDqM+xXq1/l+wfvFIhOvfHr0mQUR/f8eFfHx8ULduXZw9e1YFEiWAuHfvXjRo0AB+fn7GXEREREQWu89jRMPSGH53CYz4xWXYyMb/5mJAkptAWVU/hOAy4t1k89mdxpo4oHO49h3MVSDKgT96hmsP10ddZ5P4t6mAcceuIN4Ydq0YBj/rRYAzuCTG7Tyfbp7N0ecQEm4NDCVh/NSL6DyoAYY3MEYp5dGlixkQzFnj7rastWpNdHHYrrf0477kWXMftf1t53zOMz43STsvaseqCnpqX4KX7rSeFy+Oy7FTWIoy6GlOb1AFS6qawWt/DO9if5/+DUuik+3cautoY5/WXLtW7S5q11wJtLGts7TlmjiNqFXAJlug1oVjh9AvriSWZNgWl3H8bF/a9WvTdvy087J0gvbec75NLyoM/CtgZrofadKzZsJmlPFqzd7tvEb73DpwkxGsguHaeq3Zu572yQie27dj3BNkeacfeMzMQLVfUYfs2ddqPks2tvMPQw7bsL9nfT1JlmNivg99XS12AsuiE+zLuFkPEd14rkMmYsFlBhKvXLmigoj16tVDyZIljalEREREjjb/ckkPUknwZeep9EVBLdS87dwEZFQwsgK6VDWG3VGBpJJoU7U82gS7yf7LaVVrevGAXgE9tXmmWIu/aQ+dU3aWQBtrYEjeZ1XZf2M4l0nAbMRiF0V0c8JNRdHJGhTO8NwYQcaG5VWQD9HJ9gdxb47LP1ewzN/Pcv2URy1twGWQWOZtWNplVqXtmlVKopYtEKlR+1EUtaRfvZ+iiLcEXhyLN0oW40V0framPr9HEqwspm3LGNR4DKoTZZJ/mwCX2cEmx0xiybqF+0zs3QcQEFfSNu9MnEJX2z1EgmyWjOBBJbHUlhEsLqHFL6WNjFs9Y9l1sWD54cCSBazN2znOyM5VwXzrDxFJWKPdSwe3Ka8Pyo8RzxrrxzkEDEt0GO5n2579xwmX73nncay5W5+WGK7ds1QWcnl00ea3Z2hL9rHTejxkbBNRwccgYiYVKVIEDRs2RPPmzVG6dGljLBEREZETM0imsrj80aZhmlN2mUZ7SDMDMPIAa8siU7SHTWOaz+LLliwtp4wZS/BOMvsQXEEFklS2mYvsPxtt//pF60ErVzZHHVdZlPIwaM26cVVfX0YP6MI5MKay7sKrpH/YdAiEWTN6zAdx6zhv64pMQ1dLvYi2h3Yptqwe8mW898HE9MdfAnbaNiyBQTkXy4x+keG52Z2MrirIqPVXrYDO1uCdyOC4JB29rE+yqOXva/RZSMaQ0/VkrddQggb2bEcJGASi1ipjW1J02cw8lEDksXOIN4IMehHkRNsx3ByVgKXBAS4C3y7O37EUxOoT7SQIa/QSZZ92LbvNmpZqJ6yZxBrJ5HWZMSwZuI4/+Kj7n3mdq8+x5V6uPsvWLPIS2GTLCtb2qV0JLHNRvYGqBqBhZcfPoi27Wf97Ei9VLwgj4912L7X94CQ/WGj3AKfhZUl65qS+DcuPUw6ZxhrL9h2zl53Jjw2W/SGiGxqDiERERES5QIJk1myv5uFl0teFZ6kT8dqzQD+HYmDW+gsDgEX2gFnzLuZ4rbM9kEo2iq89KFi1Jganq4vREphUmSN1HYI8evE0fbqqn85Yt73OQa1zWXzV0wO6wWF/9LoibZkzVg7ZZ/4YrrZbGeOMMfZxeudYvNcdxzoRl1q3axSVNYOJ3gQlXR3/5l30rCLz+DnW35fxuZEMwE5GkNExYGDI4LiozD0n8UlpRp9OBYMXATMnOJ53ax2QbX6Ra8MIFKsiimYWk9apa9QSbK1qDXxbAuW7D6jrx+E427g4f6q4vhMJUhq9RDnCY9a0YyasfAblhwHXgTFf1LrJ6HXlmGT/GffZYQnoesxDgM1DsLyTv1OJN0t2s8qiNu4PjtnDmWT5Ictn2HGMcFdthqvPqI12vxpUGVisr8e7H3aIqKBiEJGIiIgox0nR1DTHB7Sp51Tm1nx3D1jpMlas9AwSd/UXKpKN4pRxJ/VWjVhlzRy0BiadAkkaa8Mq9uCklzw+oOskkBqr7c9maWDEVRZiumJ6eUiCid2c6zHMDHmQNo9tA/SE1G9oBAUzPDcSZHQM4vosvqRdP0YReG+Pi0Og8TTitYGQm/VAngQQ+yHATRDYrnmXyrZsJD0QbslUUsFPI1DoNvhxQWVqOWTZmu/NY5F3x2tfZVY6ZF8SZZ/7rGnne698ftwFC52DglIc3+gV1h+HjM7tjx3pqiGwMzMGbazzSqZkkmQz60WZbfWWZpLDPV916f8ueMf+wwZyq4oIIsoXGEQkIiIiymlGkTZ7q7V6l2htLMKZ1DHnVC+cnR6UNANC6RlF7Bxa7pVOAkJ5F5QzH9AlaOSSBEpxDi3cFqOWBjWArlPz4iFUO2ZRjkWzJaMnR6ii4mamZcbnxiy66Dhd6h0zi8B7cVxU8UtLkNparFL2J64kZrrKDNSmRVkCKmpfjHoP0xe71oOd6jo0zqWtfjVtPVNUtmWAQzBVfx9GsMJtYNp4f7bi4Ebx0sy2jkiUITNrWrLuTHoWrWPL45bqBRzoP+hYf5xxaIFc1X/rqWqHS5a6YZMwfrHrLEL9s2ddj3Efsc0r+3EZa6LOu/5Bxgt6FRP2KghyBos2E93oGEQkIiIiymGORVPt9AdDSwMrDpmKUrzYWiG9pejxMKlfLtB9NosKQLrKRjEejvOigRVFf0B3X5edXkzXXkdXeqrotK2eQrOThgqyU1m/YxagXo+gti93X7EUO3Qswp1p1hZXp17BYLNxgQzPzSEVIHYVSJAii8uMeiQzPi5mcMSYttjScrJRf6H1vUqnAhRV/RBvLqN1qsEIczmVnQnLdag3GKFfh9r2Bkk9iEb2pIvi8ZlhBqDt28n6uog8UlnTjvWFShUFm/wtnxFr/Z9O5LNonbcfKtjrRNSWGD7I8jmUzqEe2RLojERj2nHEhru5r8tnz2E9CYhv55jRKH9PYndedluvbYbU57uY473RY7awnaqew9Y6s7We0wz+VhFRgedzTWP0ExHlW863KnNYXq3d1atX1WtaWprqT01NVV21atXU/ER045LPvWnatGlGn3sDBw40+gBfXxcNUBAREeUUqWPU+gNDdsn6pI7TDKooICLKjIy+TzOISEQFgvOtyhyWV2vHICJR4ZWfgoiSkUFEuUuKShN5kp/uxdcGlbEFESW7Nzvk2pdW4s3W1PPb35y6Vf2wd1AdY4iIChIGEYnohuB8qzKH5dXaMYhIVHjlpyAiERGRg5zKRJSqE6ThJalHNavVLxARuZHR92nWiUhERERERESUm6QOwpwoytygtt5oEQOIRHQdMIhIREREREREREREHjGISERERERERERERB5lq07EE8n/GH1ERLnL+VZlDsurvZNh5zoRL+Py5VTUv/MuNX9O+vvkFQxYdAwrdpxHjSpFMbVrVbQPLm1MJaK8xjoRiYiIiIiyLqPv02xYhYgKBOdblTksr9YuLxtWCRubgCZBfhj8cEXsPpKKFz44iuUDq6FRTT9jDiLKSwwiEhERERFlXUbfp1mcmYgoC66kXcOuhBRMfqYqqlUsivA7S+HF1uXx1fZzxhxERERERERENw4GEYmIsqCorw98fICjp68YY4DDx6+gchlmM+UXU995B8uWLjWGiIiIiIiIKDsYRCQiyqJhj1bC/eMTMO6rE+g+5yjW7b2IHmHl1LS0q8Avh1NwKNkeZMwOCYY9/dRTOHnypDHmxnbp0iW8OmQwfv75Z2NMzpMgo3SyrTFj3sTBAweMKTo51nLMnQOR5nhZ1hVZT9sH2qh9l/6nnnoy3bqJiIiIiIgKGgYRiYiy6OzFqzhyMg3Tvj2Fz7echV8x4K8TV/DzwUsIGhSPLjOTEDLiEB5552+c0ebNKglabdmyGTVq3IL9+/cbYyk7JKh37vw59O3XzxiT3to1a1C/QX3s2r1LBRqtKlSogH2/7XMZHFy+fDn+/vtv1R9UuzYGDx6ixhERERERERVkDCISEWXBnDWnseznc/h9Sk0cnx2Ec/Pr4Jnm5dBxWqIKGs567ibsnlgTSTODVJ2J/RdmvTV7CRz6+wfgiSefwk/r1xtj7STjrX69uqqzZiu6Gy+ZdeZ4azadmUHnPL/MY87vrniwmZ1nzmdmEFrX6by89JvZgDJN5pP5ZV3Pde+OFStWoPv/PasyEiWIJ/PNnTNHbccc52n9nkhQ784Gd6JEiRLGGEeybgkedurUWQ3/feSIejWVK1cWTRo3QVxcnDFGJ/sjwcmnn3nGGAPUqVMHv//+u5pGRERERERUUDGISESUBbNWn8ayl6uhesWiathXu5u+9khFlCrug7tq+KF9cGk1vpivD6b/X1V8++sFXLqctcbwJXB4X1iYy2CUBOvemTIFGzdtxp69+9C3X98Mx0tWY+yOODVeSOBNAneTJk3C3Lnz1PhPP/sMFStWtAXlZJx0nTrrQTUrWTaiTx+8MniwmmfFipUoWbKkGv/6669jwtsT1XjZpmzbDDCKDz6Yp96bTO/btx9mz45Uy360cCE6dOiAhR8vwqTJU2zBvjVr1iBy9mw17uLFixmu3xXZLzmOwcHBxpj0zKChHHMJNrrKJGwbHq62J+szmcHJMqXLGGOgjuPtt9+O4ydOGGOIiIiIiIgKHgYRiYiy4JnmZXGbfzFjyO6xxmVQtoTjrdWvqI8KJl7LQgxRAoYS8JJglhmMsma/SYBRgncyTYSFtVL9rsZLcO6Lzz9TGY1mUE4CeH/++aeaJtl1zoGuW2rUQFJSYrrivFaSKdm0aVPcc889aliK8N55552qOLB1vGzTOZvyhRd62aZLUO/MmbMqOOjOk08+aXtP3qzfHXmvFStVMobSs2Yqyn7JObAGC4Xsh2SIyn4ImS7HqnWbNmrY6tZbb8Vfhw8bQ0RERERERAVPrgcRr169ig0bNmDx4sU47MUDVHx8vJpXlpFliYjyI8k6dKX/g+Wx9+9UJJ1OM8YASzadxX13lEDJ4j7GGO9JwFACh2bgrGPHjrY6+qSTorOVnYJh7sabpIiwWfxX+iXwJYa9PlxlL8p4M5tPAnTNmjVHSKNgWxFiZxIckyCZK87jZZ9k31ytR4J6EtzLjMys33TyxAkVrHTHOVNRgqJyDlzVR2k9HxJMlGNlnisiIiIiIqIbSa4GERMSEvDJJ5+oLBeRlJSkXk1Sss+5dN8//+j1hskysqysg4iooKhcxhe9HyiPO4f+iSoRB3FT34MY+98TmPxMVWMO70lgSorLSpFfM+jXoUN7fKrdG3fu3KnmOXf2rMtisu7GlylbVhU3luK/ZmcWF5bglxRjliLQ8z/4wFZsWoowy3wSIJs1c6Ya58y8zztzHi/7JEV9zUzI7MrK+jMKVkqwcP36depYm8ddzoFkcToHJyXAKNtb9+OP6ly5ykIkyqzYOb0waoUe3M95sYjs1QuRO4zBTJJ96zUn1hgiIiJ3eL8kohtRrgYRpXXK8+fPo1SpUmjfvr0qdmaKTwG+PKl30m8KDQ1V88oysqzZwiURUUHQ+8N/MGbZcfQLr4ARj1XC649WQqt6JdFs9F/Yst99dpwrZqDQrL/Q7MaNG6+K7EqgTAJ7kj1oFrWV4JcUB3Y3XoroSr2DnjL1Mlu0WTL2/ve/lbbsRQk+7tq1K914WU4CcVKEOidkZ/2SiSgZic7MdUhdjNZjLoFVWca5gRUh2xs48GVVtNldFqIEO+X4USGTtBKjemkPkWaXLx4mQxAxbx4iGhmDHiVi5UjHgGNI73mY1zvEGMopEtiM1P7XJa4YZT9m+erYEVGBsyMyj+4feXW/JCK6vnK9OPPly5fRpk0b24PVmTTg29PAmrPAhat6J/0y7pxR+k/mlWVkWSKigmLG96ewft9F7H+nFt7sXBkvP1RBdXOevwmf/scfz8xMxCm56XlJAoUSDHTOqpPgWczWGBWskyxBqSfw3hbNVcbcim++UUFAT+Ml2CXFk80sOwnCSbDRbF1Zpsl2pSizNKxizidBSSny7Lw/ko0nDbIMe22omu/FF3uhlLYt5/GyXqmz0KzD0BPZhsxrbZ3ZWVbXL39j3DV0IkFCCRZKHZRW5jKuGlhp2LChao1Zija7YhaPdle8nG5QEkAcGYPQsdpD5Dy9i6ieqD1mkjcCHhtjO27q2CESvSyBRiIiIiLKez7XNEZ/jtu6dat6OO3atSt8ylbAgRTg14tAmpst+voAd5cE6pa4hpQzp7FkyRL1MGjNYMxLm6N2owUq41oXfySt2YeApAqqP70kjB92CrUG1UWXzJdYJCIvON+qzGF5tXZSl6q8pqWlqf7U1FTVVatWTc2fm6T48rdDquGeINdFaYd9loyyJYuo7ES6viQAu3jJYrz66lCPRZ9zgvwdlIDwoFdeMcZQbpHPvWnatGlGn3sDBw40+rTvIL6+Rl8OkSDiTCBibHsEGKPsJPMuBqHzImDmqEixt5imeoag9C+vHoHQmEgsVzXBBKDj2DFob3wFkUy9UV8Z4cgmEfZMF8m4mWWG2STjMAIBMu+RUHRMWK6tS8aFIqbXctRQ65P90Pr7auNmLdcDnP4dMUbts2N2oDk+Ue3bGIzpoL8r2dfIbapXo29T3xsX67buqwPH4yHvLxIRtm2Y9ONi3zYRUYbkvrg11OW9x+Fe6nSfFQ7TzXuj+oHIuKdpQvrKfdu7+6X77WXmfklElLsy+j6d65mIpt2pwKqL6etAtJKdWZ98HltOXNBHZIEE+3yGHcBmYzg7mndp4CZomLP0fd5t6dLvvwQ0HeaJcqxf0uQ83/jdxgSiAuKfo0dx6M8/ceFC+vvAiRMnVJcf/XI4BeVLFnEbQBTPtCiL737J+v2Nco5Zl6G7Oh5zigQrp0yZ7DZLkW5g/iEIxXKMymIxusSvlgP9jEy8vgFYPtJ4QNUeiEfFhGKMmaXnEECEKqos48c8Zik+vy3GWJc9aGmXiOXL7MtFBJr7LAHBMeiofQ2Sh+R5LoKhKtiXoD0sG8vO6wtEjlxpe7h2XLe27W2RWa6LUYQ0DUFiTKxl/UREWST30q8CbPe+eWNDEWPeZzUq4Ge510aEGuO3HbZnmPcNQewsWSbj+2VG28vp+yURUW7JsyBiER9gayrwYxpwXtuqtY1S6fe9koqP9x3GxweOOkzLnCTMjy6GcQ0vYU0BC551Cg/EtQkNVJcYfhktph7S3o04jaipRkakMV26TTgOH9s8QrIhnecLRK1frPMQ5X8//rgWo98YickT38axY8eMsZLZHIPBg15W3c9btxpjdbNmzsALz/dQddldL3fX8MOBqa5bKDbddYsf1o8MNIboepPMwNzODpRg5Weffa5eqbAJQHvtQVMvhpv5Ov0CHouwZ8Q06qg9nMYiRh4oA2ogIOlwukBa7FbtMbavPUgY0KG9PWDYpKNDdo2jAHTsZ3/gDXmsIwK2xVgebN2JxfKv4LCs2k9oy9q+eFjXHYLQJtpj8pFshADlvRu9RERZl4iVyxzvmfBvj45NjPusNj02xvH+FqLdU6U/oIP13hxqX96jjLYncvh+SUSUS/IsiGiS6sDWpgA7rwFXfIBSSMPGhCTM2JuAk6lXjLmyaPd5jGhYGsPvLoERvziGzlS2X1SSJVNvH6Ls8QmHDL7Oa07bxpn9Jut8nrL8XK3PW/5tKmDcsSuI1/qT1iSiq79epNqqeZdALME5zDf2YXPUccRKINJhvvLo0qUm3D43EOUz586dw57du1T/n3/G4/ChQ6pfHNi/3+iT1nP/MPqAQ4f+xPbt27W+a/h+1Sp9JBFRPqEq1pcsFgkmOmTpZUYAAszfH7QHzzGS8acaHDGzWBKRmBCAGjkRYfPXtmX0Zkyb1+FLhuxnIg67eZMB1bO5g4mHkRiYmf0jInIn/T1T7lF64E67jyU5399MUvTYbPTJmkmYEU/bSy/b90siolyS50FE0/E04KTWLTyZgt3nc6YBlc2/XMK4u7W7fYPSGLfzlEOQUNl5HGvuNrP9gK6L9Cw9CTBaM/iWtimvz+/Msvy1QWUQu9gxEGlyXF8gOsclZLFY8WmsiUvT31M65dEm2NcIliZhzU5fdG7oZr+JCogiRYqgVpCesVXntttQslRJ1S+qVrVXOGrtr1nzVlSvXl31hzT27vdgIqK8FtJ7jFOWXmY4BQkbRRhF6azFh90H7zIlSduWv7cZf9q8Du8nB4OZ6RiZPE15nyeinJD+nikBPXvwzvn+Joy6C20NZlkyCzOU0faIiAqGPA8iFte6hr5AWFGgirb1kmVKIaBWICreXAVFfLOxO8cOYcrOEmjTQAb80aZhGpbudMoAbFgZw9V0bY6GJdHJyPbzv7mY9qU5JeNiv5blUbUmBrvahraW+dHAknAz8KcH+2KPynx6keOMMhklq1AyKpurIV/Uukn1pKP226YYarFRFyrgSpUqhYfbd8DIN0Zj+IhRqF/f/MABbcMfxKzZc1Un/VZjxo7HqNFvIqLvf4wxRETX2Q6n+qySYhFj+6IRgBpm8WQh89oaJ9FJnYhmhkviikgsRyhCnH9TtBVtDkBIaIBRN5cuccVKLzNkErH8K9tSWDlzORAa4kUQUYrbacvOtGRX7ljuej+zTduvkaOwPDBCNTxDRJQ96e+Z0hjW8m3afU3dY9Lf32K1e2qi/MiiLWvLUNzhTdUPIqPtEREVHHkWRLx2DajjC7QuBtTUtupQ76GPD8pWLIdqQTVQtlJ5XDVGZ0bSzotYZgu8Ac3DywBxp9wHBqv62X85alAbicEXESDBPYd6Bj2r5e+uJcc0dJ1qDxYGRKdhWdJFbbw/hhvZjtLZApKaZdEJtvnNFqF1aYj/x+h1knT0Mjr5m5lalxHvIiuSqKCRLMMgIxvRmbSi664l3Ro1ahp9RET5QKOOqLHMLPKmdSNjEGpriTMA7TtJhfzGtK2hiGiilrIJeKwGYoxlVWX8ZkX90oCKwzr1TJiADmMw5rFEWzG7UTGyFW8EoGP1GGOdeqDO3vqxZT9dFMWWotqqIRZzf5bVMFp2zr7Er0YZ+6Tv1+FO89hSKRFlzTbLfVPrRq1ITHfP7DXyMDpaMgud72+RRyR42B4R1mW2SrjR5Pl+mdH2iIgKCp9rGqM/x23duhU///wzunbtiuLlKuCz08CVNHvkUja80lKSWXaldtoljK1WAqlnT2PJkiW455570LRpU2MOd6TxkQR0dRFEG9dND9ZJEeOApAqW4JxkBZ5Hmwm1bYFHYZ1P6jWc4h+oijenX16v91CKNw9vIOs6hVqD6qJLVdfr9UTW3U/7w+OqGLWr7er09xzfTn9/1n0luhE536rMYXm1dlevXlWv0jS99KempqquWrVqan4iunHJ5940bdo0o8+9gQMHGn2Ar6+7HwZvZGbRPDO4SURERESFWUbfp/MsE7GUtqUeFYF7ywKXXTS/XPpyKoaXvYJ3bimJUr6ZbJ95dzK6ogwSLVl+0iWGm3UGes9j0WZrPYu7D6CFrfi0lRSlvoQWUZnbrjuqkZWdx1WjMHZG0NTfXrxaZV5GJzg14qLNF8XWmYmIiIiIiIiIKHtyPYhYrFgxrFmzBidPnlTD9f2APpWBwBJSABfwSUtDB98ULK5RHPeU1ev4k3llGVnWG9KgSqfgCnD+EV3Ve+iqgRUnku1nFiX2WQxsGuSmRWNtfVhkzncZSwa5zjZULScnHbev06kl6MyRItDO60vA0mCnlpir1sTSCZURYikW7TMsEQhn68xERERERERERJQ9uVqcOSkpCT/99BNSUlLU8O233+5QNDlV27Js3M+SeChFoH///XfV7+fnh/vuuw/+/gyDERV2zrcqc1herR2LMxMVXizOTERERESUdde1OLME/5544glVr6G46SbHZoaL+zgGEIUZMAwJCVHLMoBIRERERERERER0feVJnYh33HEHunXrhltvvdUY416NGjXUvPXr1zfGEBERERERERER0fWUZw2rEBERERERERERUcHEICIRERERERERERF5xCAiERERUa6Iw+R6dVFf6yZvN0blC7JfvbE0yRgs9PLneYqbou9T/SlxxhhHyct6u52WoaQv0Ue958JwHfB6JyIiyikMIhIRERHlguRlkVjQ81Ps2bsPQxobI7dP1ANDqpsIxxCQEcxyFRhyu5w9AOYcEFJBJts0rev9JZKNaRmxBbAytVwW9t8WzJIupwI9+n70WeZqr9NPy/x5cpaMpb3Ned1t1zim1mPp8N6dApjatNnzeyBK26c9g4ONkTknbvEIYPwG7T3PQWd/52vF6f1meI5cn/csrzOL07JzvdMNzOGzrHdZ/rFA1uXhupLPePrPv9wfLNeqwzWsdVn9IYCI6DphEJGIiIgol4QFBRp9GnkAnVsb6yUwpLqhMMNDegBkFYLGtzLGWLhdTh5OnwYWG+MXB2Fka8dgTZgKFBnT5zyOKsZ4j7SH3Ogg+3JRt41AWAYPulne/zdGoLZ1/9/IfuBHBQWNfmfupnl7nlyJm9ISI2/Tg5B79n6K2sOHpw+0acd09nyj35C8CehjbmNxDyzo5hRoC6sNy17luNo1zashDgsORhj7vw/rxx9EF1ugxPM5cn/ePa0zDpNbu1unp2kZXy9Zut7pxmf8SGB2th8L8poEEFtHI3ytfV+igvY7XMNERPkdg4hEREREOUwyUsKGr8P64S2hZ2ElY+lcIMpNYKNKpznaA+VQpA/BeVgu6UdEYxx6mA/EjXtibNgCRBtZNgkH11kCRS4csWTEWLNr/B/HkE725YJb9wD+8Pygm6X9RwIOru+BcNv+t0OP9Qe0sSYjw011rjLgXNAe0kesCsfYnsawlYtpmT1P6cUhWjIGbdmCwegxHojeZD1aEvyKRvh47ThaVOn0uD04Ke/d6FVBzNYjsH79CIRp7z2jrClr1qhzNqM140mfpu1L77roMh9Y0E0br857MIZYsh2rtAhHmO08eD5H7s+7h3VuX6UyP22BHLlutSt5nZxfT9My2JcsX+9UaHnKlrV+riS7UM3bbQHg5efSrbBwtPI3+jXB2n3Au3sNEVH+kK0g4rmzZ9ixY8cuX3bnz521dOeMu1be2P/zRayef8LWnT+VZkwhosIieLBkX7UyMqOGIlgF/GrjgNODaYY8LXfkANbfVsfyAFoFtW8DDhyyr1cFitRyTlluWIeRc4FxZjaMh2zD5EMHEdbu/qw96Hp834EIsgQ9VQDJln0nwS5LluXacEQ7ZVmmZwTr3nxc26Iz19Ny7DxZVKkZhPUH7aHQ5GXDEd1uPDrXNEa4ooJn7fSgYuOh2vsdh7CwcSob0mPW1PynteNiHqNxONDNHmxN3nTAnvFky3Ssgs5ztPPdE+ghx9ZVsFSuK3NfPJ6jTHBYpzO5btfh4BFj0IF1Wsb7khPXOxUWyVh3MNyWcRzVcwG6GNeEBAy7wJ69OLtTFT1grn2O4M3n0h3/+xEOXntEVLBlK4hYpmw5duzYscuXXekyZS1dGeOulft2rzuPDwf9jdUfnsSXkbuxft3PGPHkjziTfMWYg4gKJQmirB+Bg2bAx12xV2celks+dNCYyS4wyJ4TJgEy8yHYsTipaIWxb9oDSMHdxiFs/qr0QbrtExE2PAh9zMxEh+w2L7IDPb5vCWhtQNBcY31ShNgMam2fj5HWLEt5+A47iAOynJt9kGLFKlhnyfIxeZrmwOP+WjMjzUwkPbA12xZoTMbSuZYC03L8VoVjnCWz086yvrXtPNZ9aM2KcqhDzZq15/84+vRcZ8uCrNJpqP39WjMdPZFj2+0gxnYz98XDOfKW8zqr19autUj7taNNtxX19jQtg33Jkeudbkzzn7Z/fmwBZu16Gmy5JiTj2iA/BGSUfZ01RhAfxv4wmEhEBRCLMxMR5ZCda89hyYgkXL2qD5+7dhhjPm6H8jVTsT7qtD6SiAqvMEtQDMEItwR8PHKznHrQdSJFOl2p0mm8pVioC/510mXvqcCVBLckQ88YJ4Gq2UagxmyUI0Pu3rcKBg4H3jTW9yYwwhqYNIoN6g/+LTFyvZGR5moftk9UmUOSMZSOp2muuD1PwRhi266ZiSRBAQk0SnFo2U/t/bQzgxFxmNzNU9Foy/par9KWdR+UtQbIPAUbrUFkx6Dn027riTSp4ppvSLae5bxmdI4y4HKdcv6kPsPWxr5p08PNIuaepmViX7JyvdMNzKFORMv9TKoOMD8jUlTZ1Hgo1reL1u8/uVD03fw8q2Aii9YTUQHDICIRUQ6QDMRPRh21BRDLV/LFvx9piagRu3BntTtQpsQ1fQIRFU6SYWX0ZkpGyzlkyyTjwB/WBjOspD45o9eVpP04YCkaKgFEVUzWQ8DKKx72P3lTNNb3jHAILlkz6ZwbQ5DOdRFCI/vPkm0kdf6peg6nrPMwzUUWUJbOkzW4OAe1Dy5Aj9bB0BtxWYAuxnbt9am5KJbdeCiitPfuukiv9+z1AkoAMRJBtgYcPvWYiSjBvhEYn654c4bnyAN361SkyLZ5zObUwcH51roOXU/L3L5k7nqnQkgCiNYGlKSosoVe3+c+PZjoZcagBPGtVRno5FoMQm3zurUIHrzBc7CbiCgfYhCRiCibflntmIFYrlIRNG5dDBUqFUPFCuVw4sox/JX8J3atOqHP4KVXhwy2PfRau2VLlxpzEFGBYdSFNcIs9qqKabZCeAvXOWo2npZTjU6MwAJbHXHWIsBxmGx58FUBLYcK/ddh5GJzutQXOAIw6z00MveyVOeXMw/7rxrbcChSKo2UGEFQKX47/2kvGy/QiwjaAk9aJ3X+qXoOB7fyMM1FgDSr58kkx+4P/RyYQQhbZ6tPTTKhtGO+zBKYMLYTVN0Y9pa16K9s2wzGSZAMlsCF1B9o9KajbVsanHFV5NrjOfLEwzqdxU15GgfG97Rnh1lYp3nel2xc71QoJUt1EJY6ZePWuv6EZKZos36NWj6TGrmGbfWdap9Rx8aPfkS0p2A3EVE+xCAiEVE2bP/2LD55w56BWLaiD+5s4YPLaZdxKSUVJ06dQYOm1XFHk5uwZ8tRfSYvTZo8RT14rlixEmFhrbBx02Y13KlzZ2MOIio4nIq9to5G+FpvigN7Wk6b9qY0pmH8yOBcdNaSfSf18jnWZdcKY4OkCK1Mb4mRt9mL+6qHa8uyeud9EVZHHvZfFV2FPVOvnt6Qih68DMYQ1VCIOU3r8qTYX+bPkyqya+6j13UGVkHtg5Zj7PX14KRnOPCGsQ6pd3CtUVRTO7bjpF5Ac/1r4T4T0agH0l50XO9UsMPjOfLA0zoliNfbPm520AZLUXMP0zLalyxe71QION3PpLEkVeT9D/v4aMsnxOEzbb2vGj/cuG2dWV2jluL4Wic/Kqw3f7DQlrfV6SldVj/3RETXkc81jdFPRJRvOd+qzGF5tXZXr15Vr2lpaao/NTVVddWqVVPz56TYb8/ii/H/aNvTh8tUBOrecxVFfH20IRkpr8CfhxJRxMcHd9wZiH+9dKsalxkHDxzApEmTMOHtt1GxYkU1/OKLvfD333+r6Qs/XoR77rlH9Z88eRIRffrg119/wV133Y0ePXpg9+7dGPTKKw7T5HjMnTsPQbVZKxTdOORzb5o2bZrR597AgQONPsDX19foIyIiIiIqnDL6Ps1MRCKiLNrw2WlbALFU+au49e5UpF7RMxAvpZivqfD3r4ybbq4En2KOgdCs+uOPP1QAULISJYD4zpQpKkB46dIlTHhrPF4ZPFhNi5w9GwsW6MVznKet/mENA4hERERERETkNQYRiYiy6IXp1eBfuzhKlU9D9foXcfnKZaSkXEFKqta5eK19T3ljyexp99BDtgBgnTp1UKPGLap/586d6rVhw4bqVbIWJWgoSpQoAX//APx1+LAaJiIiIiIiIsqMXA8iSnHCDRs2YPHixTjsxcNrfHy8mleWkWWJiPKrUuWK4NHB5VDltrNIuZyKS5dScVGyD128Nu9cDbc1qWQsmT2Sdfj0U0+p+nTubdFcu7f+ZUyBChRKwNCVvv36YcuWzWo5Ns5CREREREREmZGrQcSEhAR88skn+PPPP9VwUpJjjdyXr+md1T///KNeZRlZVtZBRJRfFS/hg7Srkml4GZdUxqHz6xXc3+VW1A3NmQrcJYA47LXX8NZbb6liydLYipmJKJKSElXRZZM181CCi9JYS+yOOBVM/Pnnn40pRERERERERJ7lahBRKv0/f/48SpUqhfbt26Np06bGFCA+BfjypN5Jvyk0NFTNK8vIsmbDAURE+VHg7eXwaN87cCUtTWUcqroQjdfU1Mto16M26uVQAFGcPHFCvVaspGc17t+/35aJKEWbpd8s1iwBx88//1z1W7FoMxEREREREWVWrhdnvnz5Mtq0aaPq5hJn0oBvTwNrzgIXruqd9Mu4c0YjMDKvLCPLEhHldzXrVcDjLzdA2rWrev2HWnf5yhU8GlEX9UOrGnPlDKkL8cEHH1TFmKVY8heff2bLRJR7p2QoDnttqJomLTFL68xCshNfHTJYjZdOdOrcWb0SERERERERZSTPGlY5nQbEXgCWnQL+dhEblHFfatN2aPNcvJozLZgCSRg/bB+ijhmDOUrWfQCbjSFvJa3ZB58ox2LdXjl2CJ3N7Vn7KU9sjtqNzmtO2/qzdA41cv7N9ahrYeoh7UqiG0GtBhXxzCsNceXqFaRevozO/2mAek1yJoAogcPZc+bYfoyR4J8UZZZOiidLZ06TeaXlZZn26WefqYzuW2+91VaU2Vxu0CuvqPmJiIiIiIiIvJFnQcTdqcCqi+nrQLSSnVmffB5bTlzQR1AOO42oqbsxfrcxWKjk3Htv3qUBrnXxN4ayzr9NXVwbVBPZX9ON5Z+jR3Hozz9x4UL6+8CJEydUl1/VblgZPYY3RvfXQ9Ag9GZj7PVz8MABfPb5ZwgODjbGEBEREREREWVNngURi/gAW1OBH9OA89pWtUEb6fe9koqP9x3GxweOOkwjosLlxx/XYvQbIzF54ts4dsyeRrx1awwGD3pZdT9v3WqM1c2aOQMvPN9DFe293mrfWRl3BOdsEWZvWVttlq5Dh/YYPHiIyk4kIiIiIiIiyo48CyKapA7EtSnAzmvAFR+gFNKwMSEJM/Ym4GTqFWOurNAzzXyG6Z1ZZNSZKopqzONjLRIsRYQdipbK+hyLQluX9SajTRVXNbflVPzV7bpUUWVzWjaKLKdbjxS/TkBX7f2MWKyNs71XGW/Op3XW/TSKTUcZ70Ptp8N6Pey7tv7NlqK7wtPxcGn3Afv8lmPhbj16keMky3VgLuPqvRtF3dfo29D30/FYeLqGHIoka/tgP59Oxeedjkm8MVqYy5qs10RhLeZ87tw57Nm9S/X/+Wc8Dh86pPrFgf37jT5pTOQPow84dOhPbN++Xeu7hu9XrdJHFlJSpFmKMJtFlqW75557jKlEREREREREWZfnQUTT8TTgpNYtPJmC3eez24CKBPwSsDQ4ENcmNNC6ynDVXIAEbVoklUGimkfrugEtvAzWqGVR2Vh/A7T55ThGGNNc2n0AAXEl7duyFn/deRxr7tbHJ4b7YsQqS0Bv6kV0HmQsk4n9c+S0ngm10Rz+GD4hEEuqAuO6aeNUMVo5bscRG24etwbYhONOwbNLWIoANW14A23NO69Y9q8ERiy2BOqs23wWmBJttJQjnI5H+u04kQDiYmCTMX9ieFHbeE/rWRZ9CnjWmNbwElqoIJ2r9y7S0DWptJp3aZvy2rrPAzJd1j2oDBCd6F19mg7nE+i6yM35dD4mDpKwxnZ9afuKc+jn6fjcoIoUKYJaQXrWXJ3bbkPJUiVVv6ha1Z7dZ+2vWfNWVK9eXfWHNA5Rr0RERERERESUs/I8iFhc6xr6AmFFgSra1kuWKYWAWoGoeHMVFPHN4u4cO4WlKIOZEghS/NHF1m9KwvxoYMmzljroGlTBElzEmgwDRcay4fZAYPMulTHO6HfMzjMy0W4qik7Hrjhkntk0rKwCcsK/YUnbfElrTmFEwwroYsZHGpTGOHfrsHHMntMzA0uiVtU0xP+jZnBvdzK6Ohw37X2FlwHiTmlrNZXAYMt0/za1HffP6E2371VrYma4dqKV04hadQnj2tmPffO7S2DZ/7d3L+BVVWfewP8xRJJAuMjFhEsAQYRQHmIoIFqcIUqZgj4joLUC2kerVaTfdKBUhmstgghFeGqLeO9UA45WLv0ULGUMVlAQBsSJET5rGkAkR8L9IiQh5Nvv2mvvs/Y+15ALl/x/8+w5+77X2WefU/L6vmsFTqt5Twaezszb9Km1/1gJftrScztZ89HPI0YOyXDbINsQKDPei1+i5zNFr67u54I2LTAqGKeKLt7P03NP/NIxzQ00N0dudqT9Lm+pqakYNvw2zPjV45g2fSayspwPBLh1yPfx7HMvqEnmTbOemIOZj/8a4x79mV5DRERERERERLWp3oKIVVVAt0RgcBLQybqqp9/DhASktWyGdtdkIu2q5jinV8ftwFmsSG8cDA5GlIQunsBQc3RJjyPYpviPNbTphOUqg0ymHnbQSNZJJqEKjkUpS27TGJ7cqYJDwYDaFMl2rEBx1CCnZNk517azBeV9jZ7YCpDSXes8UUuv/fdN2hM1cGkGLb3ZmCPTg1lj4ahSYufYvDNugE8NVOK8BxVIO4biQCK6tFWHhYh0nhASyNWz8ZHMTOfcdvlztfk+z1j3xGSWaWdEzFi8/EmW4TU6G9FPRhiWKZzMzE56joiIiIiIiIhqW70FEfs0BrKSJPcrsoQrEtD3qlTc0DJVr6mGqBlnDn9ALnqwyst3bGkZtuvZiHp1tQNj1ShLHmmUFtuTDkpWmxNclGCir58+k/++yftq0whd9KKXBBCPootbJm1kY1rMjEBRHDADYYlY6h6np6gjE0cK7lb3PPGyS+KLhzrntcufayr6PQmSAGJGoIX7nqTMnYiIiIiIiIjoYlFvQcRU60r3twRuSgMqwgy/3KSiHNPSzuLpjilITazm+Myq7NfsQy6AZSH9yaUjt3el0V+dRZXzpiBXZQ5KBl6wtDmQX2Jkoulj1wXDbZvWncQKPR9TtNJmg5TCxt0PX9yilDaH3Df7fSG7RfignAqcGhmZhafcTERVxltwNNj20j1YUKDnVXmu2VdgLHY5b7C/Rfk89ljz1T1PdZxGcakRUJYS+Rp+DtHviZcEF4NZi8eQv6PhZiISERERERER0cWnzoOISUlJyM/Px5EjR9RyVmPgkVZAh2TJ7QMSKitxW2IZ8jKvRL+0JLWP7CvHyLHxkay7VshZt0+Xgx5C8dX+PhHtstmP0k8iQ5eMJqxthBI3iy0dP5FBMXQ563i08GSiDRzdAUsDwVLj/D7eLLwQ5sjCanCNYP9+EakS6CS3DWoyRu+Nn1lybA8445Y5D5XBUKz1KjPSf98KsSC9gz3ISDiqT78KXaJtTZ8ieA/8bX8NmGRk06Xn9vDee2uKVmYt+5cY18rYAZUdWd3zBPnfu591LzztP4ucmmYixrgnJuljM/g5lKA4nZmIRERERERERHTxSKiy6PlaFwgEsGHDBpSVlanl7t27o3///mpelFtXlos3NhIPt2zZgi+++ELNN27cGIMGDUJ6es2LVan+yYApMmqxO1gJUQ34f6qcZXk1p3PnzqnXyspKNV9eXq6mdu3aqf2J6PIl33vHokWL9FxkEyZM0HNAYiL/4w0RERERNWyx/j1dp5mIEvy766670K9fP7Xctq2388ErE7wBROEEDHNyctSxDCBeogqLcGNBMnIZQCQiIiIiIiIiuuTVaSYiNSClezBqodlPpAyAcr6DwhCF8v9UOcvyak7MRCRquJiJSERERER0/i5oJiI1INL/nzNaspoYQCQiIiIiIiIiulwwiEhERERE9qBwekC3QP6uCAOREREREVFDxSAiERERUa0qweoZD+Ghh0Knme+U6H3q0LZ5yOo5Dzv04vlIz+2BqomdYPdMfQzLFhZiTqFawI4FPZC1oCZnJyIiIqJLEYOIRERERLUqA8OfeBEvvmhNT9xhLeVgnMxb06zbMvQ+deUglr/wDzyxfjKy9Zralj1pI574+xIsZ5oiERERUYPCICIRERFRfQmsxkwjM3HJJ3q9sh1L3G1LsP2TJXjo+e1hts3E6kgBvG0vYwaG4J/sFEJLAHOmFCJBTbuwrFSvVsxtRdik1wpVzqxKm2WffRhjHTc9z9pv4R5rXWv801BgRh6zEYmIiIgaEgYRiYiIiOpJyf/sxQAnS/HRHGx/dgnsMKGUQC8BHtXbXhyAj591Aoj+bbMw3A0Seu1Y/wfcPPSf0VotSRnyIWCsHvRsYgqWL3SChb5tc5sgP++M2uKVjmlzO2BpG2C27Duxk1rb+sYhuPnvX+KgWiIiIiKihiChyqLnq+3kieN6joiobvl/qpxleTWnc+fOua8ylZeXW1MFru3eXe1fl57beArrdgX/CP9+z2Q8fFMTvUREda2yslLPAYsWLdJzkU2YMEHPAYmJiXqulknm4Yy9uOPFccjRq4Iku/BjDJBtknW4IhOznhgOt+BZ1m0ZgBcfzsH25x/CqvazYpZDS3+F6wbvwi/7WgsyUMraRijx9G1YAtzbA6MP+LdZZP9Pm6BqdLrKRMwItFDz9nH7UDy0F6b1sne1roTf9FyLITvrrmyaiIiIiOpXrH9P1yiISERUX/w/Vc6yvJqTE0SUH79gELEc7dq1U/vXpfn5x/B/PztpzSXAag3u6N0Uvxzc3N5IRHXu0ggiSuDQyT4U0l+iDiLqgKHLs06yEWdiVQDI+NdIwcSDWP7w9/CPnxpBxDDZhZJROA3BgKGLQUQiIiKiBi3Wv6dZzkxEVEtOVJzFgdMV1lSOUuv1RPlZvYWISEgAcRUynXJmf3bivhKYYzeXfG0uOYO1zMKAj2f6+lJ0tEbXa/Wso3crXa4cnNxAYKAMZteKgW8q9BwRERERUSgGEYmIasnx8rP45tsyd5Jlqr5/FBXh7rt/qF5r24rly7Hw6afd+cd+OQlnzoTrB46oDgQkSJiBDCf575OPgxmJ1w9ATmAVVrnBwe1Y9WcziOiwju/gDzB6Fe3RPRX2aoLZBYcwp9Be9JBtpSfxsrstgJfXBf/Lc0yBL1F0c1dYTSEiIiKiBoJBRCKiWjL2+mZY91AHjB0yA//9UCbGWMs1IcEtCXJl9ezhTg0h6HVN165444031WtdGjlqFOb/ZgGSk5P1GqI6lj4c4/61JDjK8hYpZnbkYNwTd6DkWWcE5o8x4FFnq5QyO+sfwhKMi9g3Yvbg+/HBP/bppXRMm9gU22VUZWcU5oV7dPahf9sp5I6N9F1ojtFDk43RmYGDH63DB9d20wO4EBEREVFDwD4RieiS4P+pcpbl1ZwuZJ+IwmoBnto5AFN6btVrzp8EC+fPn4exY8a6ATXJouvcubMKgFH1Sfbh7t27MfEXv9Br6HJyUfaJWAMl78yMGjAMT/pFnAb8+nmMMro7rF31cQ0iIiIiqm/sE5GI6DIy6OabVRDMIUExJ0vRKdMVUgp86y25av2P7r4bR44cCVkvkxzvkOO3bg0GP2XeOacc98jDD+OF559Xxzn7mdc3syTluHDXcDjnc9olZD+Z/NvMazjtcfZ1yDGzZv067PUjZW/K8c75zP2dKdx7dPYXsl6uKec37zFRrQisxpI/AwO+W50AomiNUT+9BjMGz0PL2buCGYi1OO1Y8D3MuHYcA4hEREREDQyDiEREteCzY2vwzN+H4qmd/a2lKszd+V0s/H//jM2H/mjvUAskEPanN99QgUQhQa7Nmzdh+yc78PnOXWqdBLYkmDV//ny88MKLav1/vfEGWrZsqdZPnToVc5+ap9bLcXK8GTiM5ssv/47WrVurY/v166euZV7/lltuVfvJehHtGu3at0ezZmnWOb9Uy/LePiv8DNnZ3nFe/e8xngxCeZ9XX321e32xZvVq9RqJnFf2l2n27Dl48MGH1HuMdI8dH/ztb3jkkXHuPSY6fzLoSrBk+aEZq5Dx6CwMP59AXd/J1vM6GUem9wgZVKU2puxJ1ndlEsdkJiIiImpoGEQkIqqhjw/nYf2BZzAm8zlVxpxg/bRO6fk/+GnXP+GzY+9iTclsVeZ8Pk6eOIHbbhuusuBuGz5MBawkuOUEFO/64d1un35OlmJKSooK0B06fFitd6zPz0f//v3V8UKOk+M3fPCBWo6lW7drMTg3V807QT9pj3P9of/yLzh9+jT++te/4o477lDrZNsNNwzEV3v3qmWHf/3+r79WrxJcNLW66iocP35CnTdeEswbM3asmneuEy/JaJT23//AA1HvsWPYsOF13ncjNRQ5GKdGbA5O467Xm4iIiIiILgJ1HkSUPsk2btyIvLw87PX9ERlOcXGx2leOkWOJiC5Gqz49bU1n8NuPNuD94gL8uPN/olXjLqiy/s/RtFEb3Nf5FewsScCdL5XirpcPqqk6mqal4Z13VqssOAlYrVq1Sm+x/fi+e91SW5kPBOwRW6dMnYanFyxQ680sQOlP0SRBupOnTqqAWXVIUE8CnC2t4/2OHj3qBj5lmj59mifw5pCsQwlEyrXlff3gB8PcYJ1DAnQ/efBB3HTjwGqVDEu2oHn9eEg78pbm4bHHHvNkFYa7x9W9X0RERERERJe6Og0i7tu3D6+//rr7x2MgYI8H6Kiw/taWyXTgwAH1KsfIsXIOIqKLzTMbj+F3G4/iz59ci5vbTEKzJLvmULIQTVdekYpBrf8de05UYPfxMyi2pvMl2XFffPGFypYTZoDRmZzRhiUIJiW2H360CS+/9JJ7jD+YJ9mKTZs0DQnexUMyBI/4sh1FZmZHdV2zXeHKkJ2sw4KCAhWY69atm1r2k8xJOccvJk3C3CfnxAzgSQBR3qdzbSlPjoeUPH+n13c8mYXR7jEREREREVFDUqdBxP379+PUqVNITU3F8OHDVRmdo7gMeOuIPcm8Y8CAAWpfOUaOlXMQEV1svjpxGnutSV4TqprqtUBhSTm+PZ5tvVboNUDFuSs8+58vCQxKVt5zzy1RyxLwkvloQTWztFky/9asWe1mJspxZh+LkqXolDZLxp9kMkYibenevbvn+mv/8hd1vfT0DPzhlVfUumgkECfv4d1316hSaTP7LxyztLljZqbqq1CuLZO0QzIjhQQQnYxL2Sb7xSJBVsmKHGb974/DaV+se0xERERERNQQ1Hk5c0VFBXJzc90/Do9XAu8eA/Ktv/W+PWdPMi/rTuqRpGVfOUaOJSK6GHVqfYU7lVXaXS8ErB+4SX8+iv/5ZLb1egTfnLB/1G7qnIJXf5ThTjXRu3dv9frs4sUYOWqUCtjlXJ/tlttKgFACgFL6K8uyTfoElGw+ybCTwVam/Mdkd5v09+f0kSj9HW7ZskVtG/fII7j//vvV+kgku9C8fmFhoQq8PTp+vMoslHUyyWjQTiaknwQ2ZXCS63Ny9BoveT/OeX7604fcUmPnPsi1pa9IGdRFsgaFZGy++eab6hjZ5qyPxAlC/tfrr4fcy0j3mIiIiIiIqKFJqLLo+Vonf4zKH1tjxoxBQloLFJUB/3saqIxwxcQEoE8K0CO5CmXHj2Hp0qXqj1szg7F6Apgz5Si6TOyB0W30qloj5z6F3LldEX+X/dZR+buQEWiBqtHVHG6xdA9GLTyLSXI9c15vpurbtKwQC9I7YHluc73m4iVtvRGtqv/cXEb8P1XOsryak/SlKq+VlZVqvry8XE3t2rVT+9elr4+dxdAX7AFCxNqftkf75o30EhHVNfneOxYtWqTnIpswYYKes/4Nkpio54iIiIiIGqZY/56u80xER2G59Qf16dA+EE3SmA8OnsLmw9/aK6iWHcOyhYWYU6gXGxgJxI3KP6aX6lPN7/vA0b0aTADxwDffYM/u3fj229DfgcOHD6vpYnX2XBX2nSrD19Ykr5VVdfbfaIiIiIiIiIjqVb0FEa9IALaUA+9XAqesq1qLLplPPFuOV3ftxatF33i2EVHD8v776/H4r2bgN/OeQmlpqV4rmc0fY9LEf1fT1i1b9Frbs4t/hwcfuF/173chdWqZhKOPd8cRa5LXzBZJegsRERERERHRpa3eypl3JbfAvCN6g6VzI6DHFUCzqkr8975S7DgSzDp6uvfVyG5UUc1yZsn22ocxOuYwcoiUqZ4OKWdWZaEF9jyQjI+ckmApEX4NWDyxE+x8LzlfCXBv+GNnj20F5EUvZ1aly+t0KmhvuxTVKWf+CIeMc/XCtF72vF22fBIr1IKvfdUpZw45TxPkTzmE6WrZ0qYpStR7lbJsY71up6KvM2pIBcZY70O1s6153ihtt87/UfZpLECGWy4c7n5EZrYrEUvdzzBye+X8443rqfaoz7QF8o1nw7mvUOXMrTBqxyG9zbyOJeQeOvfb2wb7WTOuGcd9h3kvPOf2PmfOuWWdW3rtuYbvM7jEnTx5EgvmP4U9e/ao5Z/9n5+j73e/q+aXLc3Dur+uVfNDvj8UP7pntJrfvbsYv378V1LXbC0l4PkXX7pg5cxEdGFdLOXMJSfO6jmiy1dGWvTuOvg9oItZrOeXiKihumjKmf0OWe06Yk1/PFKGwlM1HUDFDiAuz+6Aqrm9rKkVRuktJgky3RhoihK1jzWNBW5cuAcBvT0adaz0SaePzf3UCAyFU1iEjB0pwWuZAbOCQ8jvY68vGZKI6WudNgQwZ+FpjJqoj6lG+7x851EBqnRMm9sBS9vYQacqFUCU+3YI24c4962XCm56S37PYDky1DYJVAUKzhrtS8b0vCLY4576rnkvsMANkll89yP0Oia7XZB2qv2dwF487Q2nOUZb7fqotx2Us++HbcW6o8C9+ly9KzFmnXO3o3wWhaeCbZvYFFhXgmUqCBn/fc8PGPei9xncuEw/Ab7nzA1OGiJ/Bpe+K664Al2u6armu117LVJSU9S8aNPGie565zt16oz27dur+Zy+4QfnICIiIiIiIqKaqfcg4pXW1DsRuLkR0Nq6ekrTVGR06YCWV7fGFYnn2ZzSo1iOpljsBlzSMTok+BLAy+uApfc6mYaWXq2xFKeRH6yYjEAfOyQYCBw4uhVm63mVGTalEAlq2mUHlNo2wsjSsyi29/Dq3crNHEvvneLuF8g/ium9WwQz4Xo1wexI53AFMMe9ttPvXgq6tKlE8QG1Q2SFBzHGc9+s9zWkKbDjqB0sU5IxydientvV2z49G9L2Np2weIiT1XEMy9aeweyhwXs/sE8yVgROq3nJsnPan6CCac3Rxdpx+ze+4GBc7a2ekUMy3DZLmxAoU+eK+ln06hrM/GvTAqOcfeK97xLUHO29F470q5PcNkQS6TO4HKSmpmLY8Nsw41ePY9r0mcjKCqZY3jrk+3j2uRfUJPOmWU/MwczHf41xj/5MryEiIiIiIiKi2lRvQUSpNOyWCAxOAjpZV/X0e5iQgLSWzdDumkykXdUc5/TquB04ixXpjYPBwYiS0MUN+AgJVsUT9BH+Yw1tOmG5zhxzs+ZknWSvqeBYlEyxNo3hyZ0qOBQMqKky2AoURw1ySqabc22nrFUy76Tc2j5P1AE9/PdN2hM1cGkGLb3ZmCPTg1lj4UzX7VFT3hk3WKYGDXHeg87YHDi6A0bt2Kf29WQaVru91SCBXz2rRPwsJCPSWW+WSVfjvhcW6eOtSe6Fo1dXlGSfRoasj5iFGvkzuBxIluE1OhvRLzk5WU3hZGZ20nNEREREREREVNvqLYjYpzGQlSS9zkWWcEUC+l6Vihtapuo11RAje8vmD8gdQ3EgEV3a6sWofMeWlmG7no2oV1c7MFaNsmS73NYIqrmlvNXlBBclqKWzI8Px3zd5X20aoYte9JLglfQx6bTNyMa0OJmFjuKAUc6s+ht0jtOT2/9kOHYJctVcO5joBuSq1d6aCf9ZSABxH4qHOuvsUuWgOO67BBDXNjLK6r1BsfTcHmq9CibqMueg6J8BEREREREREVFdqLcgYqp1pftbAjelARVhhl9uUlGOaWln8XTHFKQmVnN8ZlVqehLj3Yy1AJaF9JOXjlzp8+41I5inymNTkKsyByWjLVjaHMgvMTLM9LFuf3nApnXBgS1iilbabJDS5mD/erUlSoltyH2z3xeyW4QP7qnAqZGRWXjKzYJTZdkFR4NtL92DBe4ANs2Rmw3vvY+bUdoco71SCrzCLW0+hmWvVeMz8on8WZxGcakReJZS+rCfV+T7HvimwrpAMKNy06dGJqIhbGlzlM+AiIiIiIiIiKiu1HkQMSkpCfn5+ThyxB6aOasx8EgroEOy5PYBCZWVuC2xDHmZV6JfWpLaR/aVY+TY+Ej2VyvkrLPLX6XEs/hqf5+IdtnsR+kn7VJRmSQbzM2GS8dPhgBjdJnqeLTwZJhJee3SQLC8Nb9PjAwws1xVDbYRHMwjIlUCneS2QU0hmWjxMMtd7QFn3DLnoTIQh7VeZUb675sxAnA4qp/DCl2ibU2fIngP/G1/DZjk9olo3d3cHt57b02Ry33NcuFCNdCI3aYY7VV9XDrXKAGGNvWUJ6v+E9WxcQxEEvGzsNrgeZ9nkeM+J/Hdd+RmeJ8lBDMRZWAVZ31CHvCRP1sz2mdARESEzfhtsx9i5dfOfBJ+u1VtqBXb5iWh3bzNeunSdeCtH6Ldj1+H/Lc+NR/lPcl7fvCt8/n3GF1I5udW28+t+fwQERE1JAlVFj1f6wKBADZs2ICysjK13L17d/Tv31/Ni3LrynLxxkbi4ZYtW/DFF1+o+caNG2PQoEFIT/eEUegSIQOmyCjU7iAkRDXg/6lyluXVnM6dO6deZWh6mS8vL1dTu3bt1P5EdPmS771j0aJFei6yCRMm6DkgMTFahyvVU3LirJ67ECRwuBCZO9/ECHvg+hoIYOWPO2Lvzyrw83561YX09et4sOd96P1e7bZHAkLZRROxf/INeo2XBKCWdP0KL90Z579HY7ZTPqNBKHjFf077fo9fqRfFtA3BdunzrrGXMNl3fmnn7XPs+WHmuWMc51DHf/4qdvzxHsTT009GWiM9F96F/R6cx+cWRW2ey2PrXLTLH6w/4zCfvyXS5xU/+3mbZz5LFvXcP+BcbBbePj4FffVStG1Boc+x9zjLCN/zJO/3lpl6QZ/Xsy7IfYY9z+8ILDZ/26JtiyHW80tE1FDF+vd0nWYiSvDvrrvuQr9+9v/ytW3r/SfJlQneAKJwAoY5OTnqWAYQL1GFRbixIBm5DCASERFRLdiWdx96T5uFefkXdyZkrHYeeGshCqzteHt9mEw2CYRUYP9xmb7C4s8HBbPp8nZjnFpvTTtfRcEtTsapHby5HRv0cRvQ+4GObgZqtONcX7+OJToASReS+fnbnyVuOf8sSnku2jVbj8xXRug1js14XQLn+jo7XvkEt7uZlQF8iOC2t6fNxO1hri/P8Tw9b5Lgn3Psfn8A8fedscPZ5gQm+00J7i+T9YwOwyyMU4HJAFZOtQPyatt712P8VKedm/FbHawP3UZERHWlXvpEvO666zB27Fh07txZr4ksMzNT7ZuVlaXX0CWhdA9GOSW2qhS3AkvjKeEmIiJqoOw/8JP0NBfbzPXWH+2S/eRsN0uSZf2Db23Gyh8728MEhRTJFPJu81zTCRpINo+zzprsa8mxdlbUPAli6H3tawdLe802mu/BvfZW49wRAyGSgRWr7HozNs6Zhe9NHozJc9Yb1wl3v6K8Z90G5xhTpPvtZ+4XWuYcuZ22AD58Gxg+9n4Mx0p8GPZzc6RjxM9mYU3RbrXUd7KRDdZ+MIaPWIm9+2XBPufisU6W2Q2455URbhAz8nEOCdSsxPBXZunlehb2+RNhniGjhDjW98Qk+3g+KwloOed0n1u5XvBc9v72sykZnmse6OjuG/L8+N6D/zvi/b6a35NYbsDPj2+wnqWFEb7j0b87be98ExKsu0kvB1nnNbIS2w4cgWErd+MrtWQ9d3cGt/XNDfNcWO936tsjsHiaXta+KlqJ3p3CJYBY7fw98HYcWa4qCP+e88zuxt6V1vfJycTsZ32vnHZuXa+yK90szX73Y3HM7xQREdVUvQ2sQpc56UPQGW1YTec7qjQREVFDEMCHRSPcrJyQbJ85g7AxV2fYhMkeW/PAQuBJvV0ycHrGDkxI4CPb+sPfvebtev2m3RjuZD+9NwvzbpFzSfDiKyweYZdTejKKNDmfKn/V59v/HoxsJrES439vNVNtl0DIoBiBwihUwGAw+lrt+p51r5b4g3fG/drxCoIZSVvnet5zpJLlWPfbod6zm/H3FYa/Hcz4U2K18+v1WI0RuKl9Om6y7v/4PG8gM35mcEXmr0emUcbZttP1wOfFxmfh8AVlLAfe+jesvv0ZjOikV9Sz8M+fw3yGKvB21n3Irsb3JCxVPgu8rc+54xWd5GB9dnCy2qxz4YF/s86VjhF/rLC+n06GnRGQdW32ZsSFeS7M72ukzL7I5FlaidWbfM9Sbdq/G2vUcxtqW/5MTM41vzc66PzkPcjUa0zqPzr4g6Xque+MvVED8BbJiLV+U+5xn8/OyBwxExudeynfrxGd0VEveqUjM8sfICciotrGICIRERFRvUvHiMnBwFxIto+ZYdP+HozzBRGGvfJMsO8vycAx/9AOS2erWX/4u9e8055ve+cU41yDMVnPRrcZrz/gPV9oJtAIY7sEQoCCPeECIXagJnK/b5LFFAxkyL1a4y8FNu6XJ6uqXWcjwyqKGPfbpt+zm/EngcARxnuK3U7JssLtg+37Lu0Mm63o2Izf3uIP4AjJPpO+6O63gz5fF6NArTfI+9azQb7jhA6yPlnbff1VQ/Tnz3yGrHs69lXvPYvrc/NSQTE3002uf48932+KcS7J2NTzMaiyXrMd8jz/zFvObn5f1Xc9bIA3so5dIzUm1ncnDpJFecsnxnNtMTI1JUhrnn/bvI520NkIWjv6TnYCqb4SaQlSrrwPe52Aryq5lyCtOsxlfj9s8v6+QubvdfBRyqGd/6Ahz7iZoSkBSJbkExHVOQYRiYiIiC4Es6QyzMACpshBBCEZOHo2otBstSCzjHNQ2H7OwvOfL3omUPT3EIVkMXlKGmOULbbvgt56VgJLL0mGpHpv8ZeRRm7rSozv6dyrJDWIhFNuHLudUuo8AsMH6oCdCnr5g7/m+QepzDhPgEiVzf6bympzB/kw369DgjZ6Vgl3nApSxldiWreq8fyFe6+G2M9YAHs/H4HMsGOtSZDVaUfoACfRDOvq67JJAlyRAoVhA7zRRS4TrhlVlj1VMj19A5IY/RR+L9+6H04w0PrNkkzceAaYaXvnM97nf4SZYRguu9LuCsDuC1EznlvVnieBqU53Beq7LVnY+jOz3sdwX3k1ERHVPgYRiYiIiOqbBBDNQQbei94fXfQgQrTAiOkT7A0JvEkAR0Zz1u2QsmO9JTb/+eJtR/Uc2LQSazBTBwKdAM/K+EuBnYBISLl1ZJHvt4wo69wrPekS6ZjtlFJMXxBS+tqb93uzTd6BNUICiOECPor3sziw5xMgq4sdHIxwnD0whtFeCWSvvA/ZzebqPepDNZ8/ybqMWM4ab7AtXKBbAoj2SOR2O+xS/ni5gWSHBHGd+19T1ue3RPrZNJ+FWiABxKl4JmxXBaa+k63PRGXz2pm2UkJuPr+qr8iw5dnyHy70bDyBU7crgCD1nZo2Mfjc+rNNzUFZ/tgFe+vgPhERkReDiERERET1zBPksUiJpYdZpifZP74/jtc88Ac3q076tBuv+tnTK8KyM3/M0Uu3vWXNq1JYI6NQBbriEXo+bP1DHO0Ix84AC99foi4hNgJrapIRXKOWAochgYxIpc0x7rdN3nOk/uxitdMOwKj+Jc3tEjRbGc9gENbxuh+60ICPDKRi9q9oll1HPs4edMNoiwSyR0gfl1P0HvUg5vNnBovlvfjKXeP63Ex2CbrZ7+IB63uwTQW8jAC4yirV8zHYZelmf5/6sw4pQz8PEgBW/S2G64tRWNeKMrBKRNZ5ZWCUsGXs1raVxvlUsFkFbu3SafOZcfuKVIH0zfit8d2wj9O/B1Iejvsw1ekHUQVGjaxcS2jfi869Nb/nkq2IsIHibfN8pfpERFQnGEQkIiIiqmeq1O/zYEbPRvj7RBwBTHUyxD7B4p3eIMKwVzpjoz42+4Hr4ypJlf7K1MAU+rjbi7qgbft78KT0XabXtcuHkQmm+3YzRmc2+c/n6a+stqiBFMIEJlWfdWEGLvGTjE+nfT1XYrjvPrpi3G9H38lfeT43dyToWO18cZW31Nmlg7ExsyolyOXNYlSTDtp4nycpg3ayDqMfd8FFff7ECCzuul63uyPGZ/lKaeP83EwSPFX99elrZr8NdLQ+h597SmN3o7eRiSh9McIYndlDymrVoC76WKudktF4fv0U+j6rnrsx7ngN+zwMR/dR6H539aSCke27YK/7XuT+jIj/e21kKXqPkwCk9IMo99Darr6LZmasXeofksWsSpad7ghkMkv87QCqc70lXb+Kq8yaiIhqJqHKouer7eSJ43qOiKhu+X+qnGV5Nadz5865rzKVl5dbUwWu7d5d7V/nKk5afwPchKozh/QK64e2cUvgX98HklvpNURUFyorK/UcsGjRIj0X2YQJE/QckJiYqOdqruTEWT13ftQoykUTI44kvG0e/2CmCy8jrZGeC6+m3wOV2aZKncOVb8f+nhBFE+v5JSJqqGL9e7pGQUQiovri/6lyluXVnJwgovz4BYOI5WjXrpY76YqgauvjwM6X9JIlMRkJP1gJXBWtK3giqg0MIhLVHwYR6VLGICIRUXix/j3NcmYiotpycjew72Ug7RzQ1JqaAAmDX2AAkYiIiIiIiC55zEQkokuC/6fKWZZXc7qQmYhVW38IHPmb9csqC9ZLzwVAx3vtjURU5y6XTESiS0HdZyIS1R1mIhIRhcdMRCKi+nBwHRLOvI+EpufsqfvDNQ4gnjlzBo/9chKyevZwJ1mW9XVh4dNPY8Xy5XqJiIiIiIiIKIhBRCKimqqqQNXeqUBKpT1l/AvQ+dd6Y800TUvDO++sxuc7d6lp/m8WIDk5WW8lIiIiIiIiqh8MIhIR1dT+l5Bw7h/AlVWAxPeaXAuUzgO+ecraZr3unQ+UH7T3rQX/KCrCIw8/jCNHjug1UBmEThahbL/1llyVufiju+9295Ptkm0ok2yTfWRfJ+PxpZdexPTp09xjIp2HiIiIiIiIGh4GEYmIaqL8ELBvnvVrWgUkSkeI54BDC63pKeCgtT4wH0i6CriytT6g5tq1b49mzdLw5ZdfqmUJAn5W+Bmys7NVoG/+/Pl44YUXVebiLyZNwtwn57gl0BIoHHTzzWrbo4+Ox3PPLVHrJcPxwQcfwuzZc/Bfb7xhrzPOI+tatmyp1hMREREREVHDw4FViOiS4P+pcpbl1ZzqfWCVisPAtzvt/yQjgcQTfwKO/lFvSwLaPwtcdZe9XE0S+Js5YzreeecdvQYqyDdy1Cg361DmJWMwb2keHntsMtasXo3du3dj4i9+obZLUFGCiFOmTsP6/HzPNjlOAoVzn3pKBQglQ7Fz587qnM617/rh3ejXr5/an+hid7EMrEJEREREdCm64AOryB/xGzduRF5eHvbu3avXRlZcXKz2lWPkWCKii5pkGTa/CUizppS+wME1QJn101qWCnR687wDiA5/n4gS4BOSdSjZhxLsW7VqFX7wg2FuX4mSbSglyDLddONAbN++HUcOH1bbTC2vukplNIYj55LA49MLFqjzbN26VW8hIiIiIiKihqhOg4j79u3D66+/rjJfRCAQUK+Oiip7Mh04cEC9yjFyrJyDiOiSsHchcPwIUN4S6PoO0Gyw3lD7pKRZFBQUWL+tJejWrZtaFpKt6AQdZfrv9/JxTdeuemv8JDtRypg//GgTXn7pJZW5SERERERERA1TnQYR9+/fj1OnTiE1NRXDhw9H//799RaguAx4y/pbWyaZdwwYMEDtK8fIsXIOIqKL3pkAqr54HlUV7YCsvwBNc/SGuiGZgt/p9R28++4adOt2rdtfoWQovvHmG7Ua8EtJSVEZi4fCZDMSERERERFRw1Dn5cwVFRXIzc11/8A9Xgm8ewzIPwF8e86eZF7WndSl17KvHCPHEhFdCqo+ecL6/52R0P8v9ujMteTkiRO47bbhbnmyOUqyBAw/+NvfcH1OMGApGYeTJv3Sc4z0dRiPO+64A88+u1hdQ7qWkFc5Puf6bNxww0D2jUhERERERNSA1enAKlu2bFH9aI0ZMwYJaS1QVAb872mgMsIVExOAPilAj+QqlB0/hqVLl6o/Ws0MxuoJYM6Uo+gysQdGt9Grao2c+xRy53bFQL0mHoH8XcgItEDV6HS9Jk6lezBq4VlMkuuZ83oz0eXO/1PlLMurOdX7wCri8Geo2vwfSLh1GXBlM72SiOobB1YhIiIiIjp/F3xgFUdhObD2dGgfiCZpzAcHT2Hz4W/tFVTLjmHZwkLMKdSLDVFhERIW7oG3d066mBz45hvs2b0b334b+jtw+PBhNV10SjYi4ft/YgCRiIiIiIiILlv1FkS8IgHYUg68Xwmcsq5qLbpkPvFsOV7dtRevFn3j2UZEDcv776/H47+agd/MewqlpaV6rWQ2f4xJE/9dTVu3bNFrbc8u/h0efOB+/OnNN/SaetbrEaBRil4gIiIiIiIiuvzUWxDRIX0gri8DCqqAswlAKirx4b4AfrdzH46Un9V7nQ87yy5hij2Nyj+m13ttWhbcJ2FKETbp9Xa5sJmhJufbhWXBGIbn2Hiy+aR02b3WMm/uW8RzSTucY8z2VVfIeaT8eh/GWO9nep61zn2vst7Zz5rMdqpzFGGZfh+qnZ7zRmm7df5N1nHm5xDtfnjIeczPQrIHzXshy87xIe8zyLzH0g51/bwz1jEnkWGtc9oeqV2y3vMcme1S1/XdG0vE50vdZ+t5KvTeI/MuxH1/LmMnT57E54Wfqfndu4uxd88eNS+KvvxSzwFffvl3PQfs2bMb27Zts+aq8Ne1a+2VRERERERERFSr6q1PxF3JLTDPHgtASUsAsq4A3j/2LY4eOISK8uAgKk/3vhrZjSqq0SeiBPz2YXl2ByzPbW4tB7AsPwWjc097+kSUIE3GjhSUTOwE1SOhBKPWNrKXJSj0GrDY2abOWQLcaxxr9GUowaIbC5LxUaR+Cc1z61VCnWddJWaP7YVpvfxt8vXh6G9f3H0i+s7jsu9T8VD72qH3zX5fC9L1srrOSWBIcHsgvwj5vbsG25cHfQ981/Qf67sfnuuE8N/7IozfUYFRelmOze8j7yHy/YLv83L5P5co7ZLPZjwygm00n5Gw9ybK86XuzyFMb9PUc60b0cpuY7Xuz+VLSpglm/D99fnodu21GDFyFLKy1MOKdX9di2VLrQfOMnrMWNxy6xA1Lz9hM6ZPxdf79iGnb188/Mij9d8nIhFdFC6mPhF37typ54iIiIiI6kbPnj31XO2I9e/peg8iXmmtv876d3qmzoFcLbFDqwknjp7AsYOHca7yXPWDiGZwR6+ymUGmcIE1I1gF/znMQFa4Y2WdHlhFB5RWqPWJWCr7yfnCBPr8wUg72Gbv1yUk8OW/RrggouxzCNP1EXZw0h8sdPjW+wNqwryXnuuEE2xfaNvt92oH4RDaHrn2p03U/iqYVqDX97aDasEgmhx7EMiuwHL3XAetzyLG/Qr33oRnfZj7ZLQrdhDRvDdy7SjPV7hnyD1HaxRHaUdDIyXMJ04cxzXXdNVrbPJTdebMGTWfnJysloW8yiQZiR07Zl6YgVWI6KJwMQURiYiIiIguNbH+PV1v5czy934369/ng5OATr4+EZGQgLSWzdDumkykXdUc5/TquB04ixXpjX0BxHCS0MUN8Ijm6JJeieIDejEq/7GGNp2wfG4vVKlJB4lk3VjgxpCyVp82jZGjZ5WCQ8GSVhUcrECxUVIdKh3T3Gs7QajmGD2xFSBly9Z5PCXHfv77Ju0pPYtivRhKgmFm+4JGpkfvE06VUTvHSllxoMw6GzBwdLD9TtBsYJ9krAicBkqPYnl6E4zubZ3bWUYjdFF7WSLdr15dUZJ9WpUtxxpIJVK7qq+az5fvs6+9dlza2rRpExJAdEjwUKZwMjM76TkiIiIiIiIiqm31FkTs0xjISpI8vcgSrkhA36tScUPLVL2mGuIKuPgDcsdQHEhEl7Z6MSrfsaVl2K5nI+rV1Q6MSTAxRiDLMXJIh2BATU1mZlt1OMFFCSZ6+3b08N83eV9tjCCdh5NN57StFWbrLUIF/QzFgWAE287QdI7Tkz9L0NSrCWYXnMKmA2eR08faSwJuehnZLdzjot2v9Nweap0KJkbsY7Ca7Yqqms+X517XZjuIiIiIiIiIiGpXvQURU60r3d8SuCkNqAgz/HKTinJMSzuLpzumIDWxmuMzS8Cp9CTGu4NgSJ+I/oFV0pHbuxJjXjMH7DiIMUhBrsoclAy808jXQaBAfokahMSmj10XDERtWueUL8ehbSOMjJrdZ0uXbLt1JZEDfuclBV3aRMiGC7lv9vsyg3QeKnBqZNsVnnIzEaXtIwuOBtteugcLnBJlNEduNrz3PiZpdwUWrK3QQTj5DOzlUb3t8uJ471f61UkRgszR2yXHrdhxVG87hmWvRfvMYzxfivkM2eez7/X53B8iIiIiIiIiovpT50HEpKQk5Ofn48gRe1SVrMbAI62ADsmStwUkVFbitsQy5GVeiX5pSWof2VeOkWPjI1l3rZCzbp8uBz2E4qtDB6SQstmP0u2RedV+nj7z0vGTIcAYPcLzeLTAUiMDcODoDlgaCJbO5vfxZuGFkD7tnOssPI1REyP1K2hQJdBJbhvUdF6j9Jolx/bAKW6Z89BkY3Rm/32LMZiH1b7FQyp0ibY1fYrgPfC3/TVg0pBg3qlkBXruvTVFLbPWgbUVRhBuYJ8krCg1gphR7pf0Z+iuk8FfnM+5V2ssRXB05qjtMvZNmFICDG2KkXpTONGfL5GIpemn9HX2YUx6K/deV//+EBERERERERHVnzodWCUQCGDDhg0oKytTy927d/cMklJuXVku3thIPJTBWL744gs137hxYwwaNAjp6SzqvBTJ4Cj2KMp6RYMWbuAVqg7/T5WzLK/mxIFViBouDqxCRERERHT+LujAKhL8u+uuuyAjLIu2bb2dw12Z4A0gCidgmJOTo45lAPESVViEGwuSkcsAIhERERERERHRJa9e+kS87rrrMHbsWHTu3FmviSwzM1Ptm5WVpdfQJaF0D0YZpbgJeRVYGk8JNxERERERERERXfTqtJyZiKi2+H+qnGV5NSeWMxM1XCxnJiIiIiI6fxe0nJmIiIiIiIiIiIgufQwiEhERERERERERURTA/weY6uewFmyWggAAAABJRU5ErkJggg==;" vertex="1" parent="1">
                    <mxGeometry x="850" y="880" width="1297" height="326" as="geometry"/>
                </mxCell>
                <mxCell id="35" value="" style="rounded=0;whiteSpace=wrap;html=1;strokeColor=#FF1414;strokeWidth=5;fillColor=none;" vertex="1" parent="1">
                    <mxGeometry x="1438.5" y="1130" width="381.5" height="60" as="geometry"/>
                </mxCell>
            </root>
        </mxGraphModel>
    </diagram>
</mxfile>